<?xml version="1.0" encoding="utf-8"?>
<!-- Generator: Adobe Illustrator 16.0.0, SVG Export Plug-In . SVG Version: 6.00 Build 0)  -->
<!DOCTYPE svg PUBLIC "-//W3C//DTD SVG 1.1//EN" "http://www.w3.org/Graphics/SVG/1.1/DTD/svg11.dtd">
<svg version="1.1" id="Layer_1" xmlns="http://www.w3.org/2000/svg" xmlns:xlink="http://www.w3.org/1999/xlink" x="0px" y="0px"
	 width="675.676px" height="202.703px" viewBox="0 0 675.676 202.703" enable-background="new 0 0 675.676 202.703"
	 xml:space="preserve">
<g>
	<g>
		<path fill="#F7CE23" d="M401.154,38.781c4.676,0,7.49,3.69,6.254,8.2l-35.127,128c-1.238,4.512-3.906,4.752-5.932,0.535
			l-32.27-67.195c-2.025-4.217-5.338-4.217-7.363-0.001l-32.272,67.196c-2.025,4.217-4.694,3.977-5.932-0.535l-35.127-128
			c-1.238-4.51,1.576-8.201,6.253-8.201h5.847c4.677,0,9.478,3.699,10.667,8.223l17.418,66.227c1.19,4.523,3.887,4.809,5.995,0.633
			l27-53.49c2.107-4.176,5.557-4.176,7.664,0l27,53.49c2.107,4.176,4.811,3.893,6.006-0.629l17.5-66.23
			c1.195-4.521,6-8.222,10.678-8.222H401.154z"/>
		<path fill="#F7CE23" d="M401.154,38.781c4.676,0,7.49,3.69,6.254,8.2l-35.127,128c-1.238,4.512-3.906,4.752-5.932,0.535
			l-32.27-67.195c-2.025-4.217-5.338-4.217-7.363-0.001l-32.272,67.196c-2.025,4.217-4.694,3.977-5.932-0.535l-35.127-128
			c-1.238-4.51,1.576-8.201,6.253-8.201h5.847c4.677,0,9.478,3.699,10.667,8.223l17.418,66.227c1.19,4.523,3.887,4.809,5.995,0.633
			l27-53.49c2.107-4.176,5.557-4.176,7.664,0l27,53.49c2.107,4.176,4.811,3.893,6.006-0.629l17.5-66.23
			c1.195-4.521,6-8.222,10.678-8.222H401.154z"/>
	</g>
</g>
<g>
	<g>
		<path fill="#F7CE23" d="M483.162,185.175c-19.613,0-36.432-7.244-50.449-21.736c-3.303-3.504-6.285-7.297-8.947-11.375
			c-2.664-4.076-4.902-8.271-6.723-12.586c-3.506-8.898-5.258-18.4-5.258-28.512c0-10.107,1.719-19.527,5.156-28.256
			s8.66-16.732,15.67-24.012c14.018-14.625,30.869-21.939,50.551-21.939c19.344,0,36.059,7.279,50.146,21.838
			c14.086,14.559,21.129,32.016,21.129,52.369c0,20.422-6.959,37.898-20.877,52.422
			C519.642,177.913,502.841,185.175,483.162,185.175z M534.826,110.966c0-14.557-5.057-27.127-15.166-37.709
			c-10.111-10.581-22.277-15.873-36.498-15.873c-14.02,0-26.084,5.292-36.193,15.873c-10.111,10.582-15.166,23.152-15.166,37.709
			c0,14.561,5.004,27.131,15.014,37.713c10.008,10.58,22.125,15.871,36.346,15.871c14.287,0,26.471-5.223,36.549-15.67
			C529.785,138.433,534.826,125.796,534.826,110.966z"/>
		<path fill="#F7CE23" d="M483.162,185.175c-19.613,0-36.432-7.244-50.449-21.736c-3.303-3.504-6.285-7.297-8.947-11.375
			c-2.664-4.076-4.902-8.271-6.723-12.586c-3.506-8.898-5.258-18.4-5.258-28.512c0-10.107,1.719-19.527,5.156-28.256
			s8.66-16.732,15.67-24.012c14.018-14.625,30.869-21.939,50.551-21.939c19.344,0,36.059,7.279,50.146,21.838
			c14.086,14.559,21.129,32.016,21.129,52.369c0,20.422-6.959,37.898-20.877,52.422
			C519.642,177.913,502.841,185.175,483.162,185.175z M534.826,110.966c0-14.557-5.057-27.127-15.166-37.709
			c-10.111-10.581-22.277-15.873-36.498-15.873c-14.02,0-26.084,5.292-36.193,15.873c-10.111,10.582-15.166,23.152-15.166,37.709
			c0,14.561,5.004,27.131,15.014,37.713c10.008,10.58,22.125,15.871,36.346,15.871c14.287,0,26.471-5.223,36.549-15.67
			C529.785,138.433,534.826,125.796,534.826,110.966z"/>
	</g>
</g>
<g>
	<g>
		<path fill="#F7CE23" d="M564.343,47.285c0-4.677,3.826-8.504,8.504-8.504h12.715c4.676,0,8.504,3.827,8.504,8.504v127.364
			c0,4.676-3.828,8.504-8.504,8.504h-2.807c-4.678,0-8.504-3.828-8.504-8.504V67.909c0-4.677-2.23-8.504-4.955-8.504
			s-4.953-3.826-4.953-8.504V47.285z"/>
		<path fill="#F7CE23" d="M564.343,47.285c0-4.677,3.826-8.504,8.504-8.504h12.715c4.676,0,8.504,3.827,8.504,8.504v127.364
			c0,4.676-3.828,8.504-8.504,8.504h-2.807c-4.678,0-8.504-3.828-8.504-8.504V67.909c0-4.677-2.23-8.504-4.955-8.504
			s-4.953-3.826-4.953-8.504V47.285z"/>
	</g>
</g>
<g>
	<g>
		<path fill="#F7CE23" d="M622.484,183.153c-4.678,0-8.504-3.828-8.504-8.504V93.167c0-4.677,0.383-12.311,0.85-16.965
			c0,0,0.869-8.644,4.307-16.564c3.438-7.92,9.66-20.004,14.66-20.882s9.754,6.745,9.754,6.745
			c2.475,3.968,2.953,8.703,1.064,10.521c0,0,0,0-1.82,2.158l0,0c-2.281,3.449-5.512,9.846-7.18,14.215c0,0-0.674,1.768-1.414,7.635
			h10.908c4.676,0,8.504,3.826,8.504,8.504v3.617c0,4.677-3.828,8.504-8.504,8.504H642.3c-4.678,0-8.504,3.826-8.504,8.504v65.49
			c0,4.676-3.828,8.504-8.504,8.504H622.484z"/>
		<path fill="#F7CE23" d="M622.484,183.153c-4.678,0-8.504-3.828-8.504-8.504V93.167c0-4.677,0.383-12.311,0.85-16.965
			c0,0,0.869-8.644,4.307-16.564c3.438-7.92,9.66-20.004,14.66-20.882s9.754,6.745,9.754,6.745
			c2.475,3.968,2.953,8.703,1.064,10.521c0,0,0,0-1.82,2.158l0,0c-2.281,3.449-5.512,9.846-7.18,14.215c0,0-0.674,1.768-1.414,7.635
			h10.908c4.676,0,8.504,3.826,8.504,8.504v3.617c0,4.677-3.828,8.504-8.504,8.504H642.3c-4.678,0-8.504,3.826-8.504,8.504v65.49
			c0,4.676-3.828,8.504-8.504,8.504H622.484z"/>
	</g>
</g>
<g>
	<g>
		<g>
			<path fill="#F7CE23" d="M85.467,65.053c7.242,0,12.836,1.403,16.785,4.212c3.946,2.807,5.92,6.042,5.92,9.704
				c0,2.197-0.835,4.11-2.502,5.737c-1.669,1.629-3.683,2.441-6.042,2.441c-1.547,0-2.89-0.346-4.028-1.037
				c-1.141-0.691-2.768-2.421-4.883-5.188c-3.988-5.289-7.935-7.935-11.841-7.935c-3.338,0-6.287,1.281-8.85,3.842
				c-2.563,2.559-3.845,5.75-3.845,9.568c0,3.334,0.813,6.565,2.441,9.693c1.627,3.131,5.737,8.19,12.329,15.179
				c9.033,9.593,13.55,18.696,13.55,27.31c0,8.617-3.662,16.156-10.986,22.617c-7.324,6.463-16.766,9.691-28.32,9.691
				c-9.686,0-16.888-1.975-21.606-5.92c-4.721-3.947-7.08-8.809-7.08-14.588c0-2.848,0.895-5.207,2.686-7.08
				c1.789-1.871,3.986-2.807,6.592-2.807c2.277,0,4.23,0.752,5.859,2.258c1.627,1.506,2.441,3.277,2.441,5.311
				c0,0.814-0.055,1.873-0.162,3.174c-0.055,1.059-0.082,1.953-0.082,2.686c0,2.686,1.135,4.965,3.407,6.836
				c2.189,1.873,5.189,2.807,9,2.807c4.379,0,8.23-0.752,11.555-2.254c3.325-1.504,5.92-3.781,7.786-6.828
				c1.865-3.049,2.798-6.076,2.798-9.084c0-2.926-0.875-5.852-2.625-8.777c-1.751-2.926-5.676-7.762-11.78-14.51
				c-8.465-9.428-12.695-18.489-12.695-27.187c0-7.966,3.214-14.937,9.644-20.91C67.358,68.04,75.537,65.053,85.467,65.053z"/>
		</g>
		<g>
			<path fill="#F7CE23" d="M132.62,70.118c6.707-3.783,12.415-5.676,17.13-5.676c2.602,0,4.593,0.57,5.974,1.709
				c1.381,1.141,2.073,2.686,2.073,4.639c0,2.361-2.638,12.371-7.914,30.029c-8.602,28.891-12.903,46.307-12.903,52.246
				c0,1.141,0.284,2.096,0.854,2.869c0.568,0.773,1.179,1.16,1.831,1.16c2.604,0,18.159-14.148,20.02-15.137
				s3.462,2.119,3.462,2.119c0.714,1.386,0.347,3.369-0.816,4.407c0,0-17.172,15.323-22.299,18.253s-9.319,4.395-12.573,4.395
				c-2.85,0-5.108-0.896-6.775-2.686c-1.669-1.789-2.502-4.271-2.502-7.445c0-10.172,6.104-35.035,18.311-74.586
				c0.568-1.871,0.854-3.54,0.854-5.005c0-1.627-0.732-2.441-2.197-2.441c-1.629,0-3.479,0.652-5.554,1.953
				C127.52,82.225,125.914,73.903,132.62,70.118z M163.714,12.563c2.521,0,4.597,0.835,6.226,2.503
				c1.627,1.668,2.441,3.805,2.441,6.408c0,3.582-1.242,6.734-3.723,9.461c-2.483,2.727-5.27,4.089-8.362,4.089
				c-2.441,0-4.477-0.854-6.104-2.563c-1.629-1.709-2.441-3.946-2.441-6.714c0-3.662,1.179-6.774,3.54-9.339
				C157.65,13.845,160.458,12.563,163.714,12.563z"/>
		</g>
		<g>
			<path fill="#F7CE23" d="M205.248,49c0.386-1.51,1.894-3.203,3.349-3.761l14.087-5.404c1.456-0.558,2.329,0.22,1.942,1.73
				l-7.361,28.677c-0.388,1.51,0.571,2.746,2.13,2.746h19.609c1.559,0,2.554,1.244,2.211,2.765l-0.707,3.137
				c-0.343,1.521-1.898,2.765-3.458,2.765h-19.628c-1.559,0-3.156,1.234-3.548,2.743l-9.221,35.423
				c-0.393,1.509-1.016,3.982-1.385,5.497c0,0-4.399,18.066-4.399,22.865c0,2.197,0.467,3.785,1.404,4.762
				c0.935,0.977,2.216,1.465,3.845,1.465c2.521,0,6.388-1.506,11.597-4.518c6.836-3.986,16.732-12.926,19.531-13.549
				s3.837,2.896,3.837,2.896c0.441,1.495-0.229,3.47-1.49,4.387c0,0-27.453,19.98-33.475,22.99
				c-6.023,3.01-10.864,4.516-14.526,4.516c-3.012,0-5.392-1.098-7.141-3.295c-1.751-2.197-2.625-5.777-2.625-10.742
				c0-5.859,1.545-14.811,4.639-26.855L196.19,84.4c0.386-1.51-0.573-2.746-2.132-2.746h-14.106c-1.559,0-2.521-1.236-2.138-2.748
				l0.804-3.172c0.383-1.511,1.972-2.748,3.531-2.748h14.127c1.559,0,3.151-1.236,3.537-2.746L205.248,49z"/>
		</g>
	</g>
</g>
</svg>
