<svg id="e20k5bw1oio31" xmlns="http://www.w3.org/2000/svg" xmlns:xlink="http://www.w3.org/1999/xlink" viewBox="0 0 336 268.667000" shape-rendering="geometricPrecision" text-rendering="geometricPrecision"><style><![CDATA[#e20k5bw1oio32_to {animation: e20k5bw1oio32_to__to 8000ms linear infinite normal forwards}@keyframes e20k5bw1oio32_to__to { 0% {transform: translate(168px,134.333500px)} 25% {transform: translate(168px,134.333500px)} 36.250000% {transform: translate(79.245012px,134.343872px)} 100% {transform: translate(79.245012px,134.343872px)} }#e20k5bw1oio32_ts {animation: e20k5bw1oio32_ts__ts 8000ms linear infinite normal forwards}@keyframes e20k5bw1oio32_ts__ts { 0% {transform: scale(1,1)} 25% {transform: scale(1,1)} 36.250000% {transform: scale(0.500000,0.500000)} 100% {transform: scale(0.500000,0.500000)} }#e20k5bw1oio33_to {animation: e20k5bw1oio33_to__to 8000ms linear infinite normal forwards}@keyframes e20k5bw1oio33_to__to { 0% {transform: translate(132.002374px,147.475261px)} 12.500000% {transform: translate(277.754982px,132.640280px)} 100% {transform: translate(277.754982px,132.640280px)} }#e20k5bw1oio33_ts {animation: e20k5bw1oio33_ts__ts 8000ms linear infinite normal forwards}@keyframes e20k5bw1oio33_ts__ts { 0% {transform: scale(1,1)} 12.500000% {transform: scale(3,3)} 100% {transform: scale(3,3)} }#e20k5bw1oio34_to {animation: e20k5bw1oio34_to__to 8000ms linear infinite normal forwards}@keyframes e20k5bw1oio34_to__to { 0% {transform: translate(0px,0px)} 68.750000% {transform: translate(0px,0px)} 81.250000% {transform: translate(78.503308px,-22.949760px)} 100% {transform: translate(78.503308px,-22.949760px)} }#e20k5bw1oio36_ts {animation: e20k5bw1oio36_ts__ts 8000ms linear infinite normal forwards}@keyframes e20k5bw1oio36_ts__ts { 0% {transform: translate(138.059328px,159.832906px) scale(0,0.650000)} 15% {transform: translate(138.059328px,159.832906px) scale(0,0.650000)} 16.250000% {transform: translate(138.059328px,159.832906px) scale(0.650000,0.650000)} 100% {transform: translate(138.059328px,159.832906px) scale(0.650000,0.650000)} }#e20k5bw1oio37_to {animation: e20k5bw1oio37_to__to 8000ms linear infinite normal forwards}@keyframes e20k5bw1oio37_to__to { 0% {transform: translate(0px,0px)} 58.750000% {transform: translate(0px,0px)} 71.250000% {transform: translate(78.503313px,-56.860497px)} 100% {transform: translate(78.503313px,-56.860497px)} }#e20k5bw1oio38_to {animation: e20k5bw1oio38_to__to 8000ms linear infinite normal forwards}@keyframes e20k5bw1oio38_to__to { 0% {transform: translate(27.192375px,-276.413998px)} 5% {transform: translate(27.192375px,-276.413998px)} 12.500000% {transform: translate(27.192375px,-280.080665px)} 100% {transform: translate(27.192375px,-280.080665px)} }#e20k5bw1oio39_ts {animation: e20k5bw1oio39_ts__ts 8000ms linear infinite normal forwards}@keyframes e20k5bw1oio39_ts__ts { 0% {transform: translate(138.059328px,150.562907px) scale(0,0)} 15% {transform: translate(138.059328px,150.562907px) scale(0,0)} 16.250000% {transform: translate(138.059328px,150.562907px) scale(0.650000,0.650000)} 100% {transform: translate(138.059328px,150.562907px) scale(0.650000,0.650000)} }#e20k5bw1oio310_to {animation: e20k5bw1oio310_to__to 8000ms linear infinite normal forwards}@keyframes e20k5bw1oio310_to__to { 0% {transform: translate(0px,0px)} 48.750000% {transform: translate(0px,0px)} 61.250000% {transform: translate(78.503319px,80.164479px)} 100% {transform: translate(78.503319px,80.164479px)} }#e20k5bw1oio311_to {animation: e20k5bw1oio311_to__to 8000ms linear infinite normal forwards}@keyframes e20k5bw1oio311_to__to { 0% {transform: translate(27.192375px,-270.031000px)} 5% {transform: translate(27.192375px,-270.031000px)} 12.500000% {transform: translate(27.192375px,-276.364333px)} 100% {transform: translate(27.192375px,-276.364333px)} }#e20k5bw1oio312_ts {animation: e20k5bw1oio312_ts__ts 8000ms linear infinite normal forwards}@keyframes e20k5bw1oio312_ts__ts { 0% {transform: translate(138.059328px,141.337611px) scale(0,0)} 15% {transform: translate(138.059328px,141.337611px) scale(0,0)} 16.250000% {transform: translate(138.059328px,141.337611px) scale(0.650000,0.650000)} 100% {transform: translate(138.059328px,141.337611px) scale(0.650000,0.650000)} }#e20k5bw1oio313_to {animation: e20k5bw1oio313_to__to 8000ms linear infinite normal forwards}@keyframes e20k5bw1oio313_to__to { 0% {transform: translate(0px,0px)} 38.750000% {transform: translate(0px,0px)} 51.250000% {transform: translate(78.503325px,46.490522px)} 100% {transform: translate(78.503325px,46.490522px)} }#e20k5bw1oio314_to {animation: e20k5bw1oio314_to__to 8000ms linear infinite normal forwards}@keyframes e20k5bw1oio314_to__to { 0% {transform: translate(258px,136.090002px)} 5% {transform: translate(258px,136.090002px)} 12.500000% {transform: translate(258px,126.090002px)} 100% {transform: translate(258px,126.090002px)} }#e20k5bw1oio315_ts {animation: e20k5bw1oio315_ts__ts 8000ms linear infinite normal forwards}@keyframes e20k5bw1oio315_ts__ts { 0% {transform: translate(138.068637px,132.347610px) scale(0,0)} 15% {transform: translate(138.068637px,132.347610px) scale(0,0)} 16.250000% {transform: translate(138.068637px,132.347610px) scale(0.654263,0.650000)} 100% {transform: translate(138.068637px,132.347610px) scale(0.654263,0.650000)} }#e20k5bw1oio326_to {animation: e20k5bw1oio326_to__to 8000ms linear infinite normal forwards}@keyframes e20k5bw1oio326_to__to { 0% {transform: translate(360.181500px,136.688651px)} 28.750000% {transform: translate(360.181500px,136.688651px)} 36.250000% {transform: translate(300.181500px,136.688651px)} 100% {transform: translate(300.181500px,136.688651px)} }]]></style><g id="e20k5bw1oio32_to" transform="translate(168,134.333500)"><g id="e20k5bw1oio32_ts" transform="scale(1,1)"><g id="e20k5bw1oio32" transform="translate(-168,-134.333500)"><g id="e20k5bw1oio33_to" transform="translate(132.002374,147.475261)"><g id="e20k5bw1oio33_ts" transform="scale(1,1)"><g id="e20k5bw1oio33" transform="translate(-132.002375,-151.398500)"><g id="e20k5bw1oio34_to" transform="translate(0,0)"><g id="e20k5bw1oio34" transform="translate(0,0)"><path id="e20k5bw1oio35" d="M34.270000,135.026000C31.954000,135.026000,30.075000,135.307000,30.075000,135.654000L30.075000,137.927000C30.075000,138.274000,31.953000,138.554000,34.270000,138.554000C36.587000,138.554000,38.465000,138.274000,38.465000,137.927000L38.465000,135.654000C38.465000,135.307000,36.587000,135.026000,34.270000,135.026000ZM34.270000,136.130000C32.201000,136.130000,30.524000,135.946000,30.524000,135.721000C30.524000,135.496000,32.201000,135.312000,34.270000,135.312000C36.339000,135.312000,38.016000,135.496000,38.016000,135.721000C38.016000,135.946000,36.339000,136.130000,34.270000,136.130000Z" transform="matrix(3 0 0 3 27.19237541000010 -251.90549847000017)" fill="rgb(0,0,0)" stroke="none" stroke-width="1"/><g id="e20k5bw1oio36_ts" transform="translate(138.059328,159.832906) scale(0,0.650000)"><path id="e20k5bw1oio36" d="M20.681000,126.584000L20.681000,125.249000C20.681000,124.436000,20.021000,123.776000,19.207000,123.776000C18.393000,123.776000,17.734000,124.435000,17.734000,125.249000L17.734000,126.589000C17.323000,126.756000,17.031000,127.160000,17.031000,127.629000L17.031000,128.630000C17.031000,129.247000,17.536000,129.752000,18.154000,129.752000L20.276000,129.752000C20.893000,129.752000,21.399000,129.247000,21.399000,128.630000L21.399000,127.629000C21.398000,127.155000,21.099000,126.748000,20.681000,126.584000ZM19.432000,128.243000L19.432000,128.554000C19.432000,128.702000,19.335000,128.822000,19.215000,128.822000C19.096000,128.822000,18.998000,128.703000,18.998000,128.554000L18.998000,128.243000C18.915000,128.179000,18.861000,128.079000,18.861000,127.966000C18.861000,127.771000,19.019000,127.612000,19.215000,127.612000C19.411000,127.612000,19.569000,127.771000,19.569000,127.966000C19.568000,128.079000,19.514000,128.178000,19.432000,128.243000ZM19.946000,126.506000L18.468000,126.506000L18.468000,125.392000C18.468000,124.984000,18.799000,124.652000,19.207000,124.652000C19.615000,124.652000,19.946000,124.984000,19.946000,125.392000L19.946000,126.506000Z" transform="translate(-19.215000,-126.764000)" clip-rule="evenodd" fill="rgb(255,255,255)" fill-rule="evenodd" stroke="none" stroke-width="1"/></g></g></g><g id="e20k5bw1oio37_to" transform="translate(0,0)"><g id="e20k5bw1oio37" transform="translate(0,0)"><g id="e20k5bw1oio38_to" transform="translate(27.192375,-276.413998)"><path id="e20k5bw1oio38" d="M34.270000,141.396000C31.954000,141.396000,30.075000,141.676000,30.075000,142.024000L30.075000,144.296000C30.075000,144.643000,31.953000,144.924000,34.270000,144.924000C36.587000,144.924000,38.465000,144.643000,38.465000,144.296000L38.465000,142.024000C38.465000,141.676000,36.587000,141.396000,34.270000,141.396000ZM34.270000,142.500000C32.201000,142.500000,30.524000,142.316000,30.524000,142.091000C30.524000,141.864000,32.201000,141.682000,34.270000,141.682000C36.339000,141.682000,38.016000,141.865000,38.016000,142.091000C38.016000,142.317000,36.339000,142.500000,34.270000,142.500000Z" transform="scale(3,3) translate(0,0)" fill="rgb(0,0,0)" stroke="none" stroke-width="1"/></g><g id="e20k5bw1oio39_ts" transform="translate(138.059328,150.562907) scale(0,0)"><path id="e20k5bw1oio39" d="M20.681000,126.584000L20.681000,125.249000C20.681000,124.436000,20.021000,123.776000,19.207000,123.776000C18.393000,123.776000,17.734000,124.435000,17.734000,125.249000L17.734000,126.589000C17.323000,126.756000,17.031000,127.160000,17.031000,127.629000L17.031000,128.630000C17.031000,129.247000,17.536000,129.752000,18.154000,129.752000L20.276000,129.752000C20.893000,129.752000,21.399000,129.247000,21.399000,128.630000L21.399000,127.629000C21.398000,127.155000,21.099000,126.748000,20.681000,126.584000ZM19.432000,128.243000L19.432000,128.554000C19.432000,128.702000,19.335000,128.822000,19.215000,128.822000C19.096000,128.822000,18.998000,128.703000,18.998000,128.554000L18.998000,128.243000C18.915000,128.179000,18.861000,128.079000,18.861000,127.966000C18.861000,127.771000,19.019000,127.612000,19.215000,127.612000C19.411000,127.612000,19.569000,127.771000,19.569000,127.966000C19.568000,128.079000,19.514000,128.178000,19.432000,128.243000ZM19.946000,126.506000L18.468000,126.506000L18.468000,125.392000C18.468000,124.984000,18.799000,124.652000,19.207000,124.652000C19.615000,124.652000,19.946000,124.984000,19.946000,125.392000L19.946000,126.506000Z" transform="translate(-19.215000,-126.764000)" clip-rule="evenodd" fill="rgb(255,255,255)" fill-rule="evenodd" stroke="none" stroke-width="1" stroke-opacity="0"/></g></g></g><g id="e20k5bw1oio310_to" transform="translate(0,0)"><g id="e20k5bw1oio310" transform="translate(0,0)"><g id="e20k5bw1oio311_to" transform="translate(27.192375,-270.031000)"><path id="e20k5bw1oio311" d="M34.270000,137.149000C31.954000,137.149000,30.075000,137.430000,30.075000,137.777000L30.075000,140.050000C30.075000,140.397000,31.953000,140.677000,34.270000,140.677000C36.587000,140.677000,38.465000,140.397000,38.465000,140.050000L38.465000,137.777000C38.465000,137.430000,36.587000,137.149000,34.270000,137.149000ZM34.270000,138.253000C32.201000,138.253000,30.524000,138.070000,30.524000,137.844000C30.524000,137.618000,32.201000,137.435000,34.270000,137.435000C36.339000,137.435000,38.016000,137.619000,38.016000,137.844000C38.016000,138.071000,36.339000,138.253000,34.270000,138.253000Z" transform="scale(3,3) translate(0,0)" fill="rgb(0,0,0)" stroke="none" stroke-width="1"/></g><g id="e20k5bw1oio312_ts" transform="translate(138.059328,141.337611) scale(0,0)"><path id="e20k5bw1oio312" d="M20.681000,126.584000L20.681000,125.249000C20.681000,124.436000,20.021000,123.776000,19.207000,123.776000C18.393000,123.776000,17.734000,124.435000,17.734000,125.249000L17.734000,126.589000C17.323000,126.756000,17.031000,127.160000,17.031000,127.629000L17.031000,128.630000C17.031000,129.247000,17.536000,129.752000,18.154000,129.752000L20.276000,129.752000C20.893000,129.752000,21.399000,129.247000,21.399000,128.630000L21.399000,127.629000C21.398000,127.155000,21.099000,126.748000,20.681000,126.584000ZM19.432000,128.243000L19.432000,128.554000C19.432000,128.702000,19.335000,128.822000,19.215000,128.822000C19.096000,128.822000,18.998000,128.703000,18.998000,128.554000L18.998000,128.243000C18.915000,128.179000,18.861000,128.079000,18.861000,127.966000C18.861000,127.771000,19.019000,127.612000,19.215000,127.612000C19.411000,127.612000,19.569000,127.771000,19.569000,127.966000C19.568000,128.079000,19.514000,128.178000,19.432000,128.243000ZM19.946000,126.506000L18.468000,126.506000L18.468000,125.392000C18.468000,124.984000,18.799000,124.652000,19.207000,124.652000C19.615000,124.652000,19.946000,124.984000,19.946000,125.392000L19.946000,126.506000Z" transform="translate(-19.215000,-126.764000)" clip-rule="evenodd" fill="rgb(255,255,255)" fill-rule="evenodd" stroke="none" stroke-width="1"/></g></g></g><g id="e20k5bw1oio313_to" transform="translate(0,0)"><g id="e20k5bw1oio313" transform="translate(0,0)"><g id="e20k5bw1oio314_to" transform="translate(258,136.090002)"><path id="e20k5bw1oio314" d="M34.270000,139.273000C31.954000,139.273000,30.075000,139.553000,30.075000,139.900000L30.075000,142.173000C30.075000,142.520000,31.953000,142.801000,34.270000,142.801000C36.587000,142.801000,38.465000,142.520000,38.465000,142.173000L38.465000,139.900000C38.465000,139.553000,36.587000,139.273000,34.270000,139.273000ZM34.270000,140.377000C32.201000,140.377000,30.524000,140.193000,30.524000,139.967000C30.524000,139.741000,32.201000,139.559000,34.270000,139.559000C36.339000,139.559000,38.016000,139.742000,38.016000,139.967000C38.016000,140.194000,36.339000,140.377000,34.270000,140.377000Z" transform="scale(3,3) translate(-76.935875,-139.273000)" fill="rgb(0,0,0)" stroke="none" stroke-width="1"/></g><g id="e20k5bw1oio315_ts" transform="translate(138.068637,132.347610) scale(0,0)"><path id="e20k5bw1oio315" d="M20.681000,126.584000L20.681000,125.249000C20.681000,124.436000,20.021000,123.776000,19.207000,123.776000C18.393000,123.776000,17.734000,124.435000,17.734000,125.249000L17.734000,126.589000C17.323000,126.756000,17.031000,127.160000,17.031000,127.629000L17.031000,128.630000C17.031000,129.247000,17.536000,129.752000,18.154000,129.752000L20.276000,129.752000C20.893000,129.752000,21.399000,129.247000,21.399000,128.630000L21.399000,127.629000C21.398000,127.155000,21.099000,126.748000,20.681000,126.584000ZM19.432000,128.243000L19.432000,128.554000C19.432000,128.702000,19.335000,128.822000,19.215000,128.822000C19.096000,128.822000,18.998000,128.703000,18.998000,128.554000L18.998000,128.243000C18.915000,128.179000,18.861000,128.079000,18.861000,127.966000C18.861000,127.771000,19.019000,127.612000,19.215000,127.612000C19.411000,127.612000,19.569000,127.771000,19.569000,127.966000C19.568000,128.079000,19.514000,128.178000,19.432000,128.243000ZM19.946000,126.506000L18.468000,126.506000L18.468000,125.392000C18.468000,124.984000,18.799000,124.652000,19.207000,124.652000C19.615000,124.652000,19.946000,124.984000,19.946000,125.392000L19.946000,126.506000Z" transform="translate(-19.215000,-126.764000)" clip-rule="evenodd" fill="rgb(255,255,255)" fill-rule="evenodd" stroke="none" stroke-width="1"/></g></g></g></g></g></g><g id="e20k5bw1oio316"><path id="e20k5bw1oio317" d="M24.949000,127.599000C25.201000,127.752000,25.723000,127.932000,26.129000,127.932000C26.543000,127.932000,26.714000,127.788000,26.714000,127.563000C26.714000,127.338000,26.579000,127.230000,26.066000,127.059000C25.157000,126.752000,24.806000,126.257000,24.815000,125.736000C24.815000,124.917000,25.517000,124.296000,26.607000,124.296000C27.120000,124.296000,27.579000,124.412000,27.849000,124.548000L27.606000,125.493000C27.408000,125.385000,27.030000,125.241000,26.652000,125.241000C26.319000,125.241000,26.130000,125.376000,26.130000,125.600000C26.130000,125.807000,26.301000,125.915000,26.841000,126.105000C27.678000,126.393000,28.029000,126.816000,28.038000,127.464000C28.038000,128.283000,27.390000,128.886000,26.130000,128.886000C25.554000,128.886000,25.041000,128.760000,24.707000,128.580000L24.949000,127.599000Z" transform="matrix(3 0 0 3 23.19087541000010 -271.25499846500031)" fill="rgb(0,0,0)" stroke="none" stroke-width="1"/><path id="e20k5bw1oio318" d="M29.917000,127.032000C29.962000,127.599000,30.520000,127.869000,31.159000,127.869000C31.627000,127.869000,32.005000,127.806000,32.374000,127.689000L32.554000,128.617000C32.104000,128.797000,31.554000,128.887000,30.961000,128.887000C29.466000,128.887000,28.611000,128.023000,28.611000,126.646000C28.611000,125.530000,29.304000,124.296000,30.835000,124.296000C32.257000,124.296000,32.797000,125.403000,32.797000,126.492000C32.797000,126.726000,32.770000,126.933000,32.752000,127.032000L29.917000,127.032000ZM31.529000,126.095000C31.529000,125.762000,31.385000,125.204000,30.755000,125.204000C30.179000,125.204000,29.944000,125.725000,29.908000,126.095000L31.529000,126.095000Z" transform="matrix(3 0 0 3 23.19087541000010 -271.25499846500026)" fill="rgb(0,0,0)" stroke="none" stroke-width="1"/><path id="e20k5bw1oio319" d="M36.920000,128.688000C36.677000,128.796000,36.218000,128.886000,35.696000,128.886000C34.274000,128.886000,33.364000,128.022000,33.364000,126.636000C33.364000,125.348000,34.246000,124.295000,35.885000,124.295000C36.245000,124.295000,36.641000,124.358000,36.929000,124.466000L36.713000,125.484000C36.551000,125.412000,36.308000,125.348000,35.948000,125.348000C35.228000,125.348000,34.760000,125.862000,34.769000,126.581000C34.769000,127.392000,35.309000,127.814000,35.975000,127.814000C36.299000,127.814000,36.551000,127.760000,36.758000,127.679000L36.920000,128.688000Z" transform="matrix(3 0 0 3 23.19087541000012 -271.25499846500031)" fill="rgb(0,0,0)" stroke="none" stroke-width="1"/><path id="e20k5bw1oio320" d="M41.825000,127.383000C41.825000,127.959000,41.843000,128.427000,41.861000,128.796000L40.673000,128.796000L40.610000,128.175000L40.583000,128.175000C40.412000,128.445000,39.998000,128.895000,39.206000,128.895000C38.315000,128.895000,37.658000,128.337000,37.658000,126.978000L37.658000,124.394000L39.035000,124.394000L39.035000,126.762000C39.035000,127.401000,39.242000,127.788000,39.719000,127.788000C40.097000,127.788000,40.313000,127.526000,40.403000,127.310000C40.439000,127.229000,40.448000,127.121000,40.448000,127.013000L40.448000,124.393000L41.825000,124.393000L41.825000,127.383000Z" transform="matrix(3 0 0 3 23.19087541000012 -271.25499846500031)" fill="rgb(0,0,0)" stroke="none" stroke-width="1"/><path id="e20k5bw1oio321" d="M47.323000,127.032000C47.368000,127.599000,47.926000,127.869000,48.565000,127.869000C49.033000,127.869000,49.411000,127.806000,49.780000,127.689000L49.960000,128.617000C49.510000,128.797000,48.961000,128.887000,48.367000,128.887000C46.872000,128.887000,46.017000,128.023000,46.017000,126.646000C46.017000,125.530000,46.710000,124.296000,48.241000,124.296000C49.664000,124.296000,50.204000,125.403000,50.204000,126.492000C50.204000,126.726000,50.177000,126.933000,50.159000,127.032000L47.323000,127.032000ZM48.935000,126.095000C48.935000,125.762000,48.791000,125.204000,48.161000,125.204000C47.585000,125.204000,47.350000,125.725000,47.314000,126.095000L48.935000,126.095000Z" transform="matrix(3 0 0 3 23.19087541000010 -271.25499846500026)" fill="rgb(0,0,0)" stroke="none" stroke-width="1"/><path id="e20k5bw1oio322" d="M42.922000,125.843000C42.922000,125.195000,42.904000,124.772000,42.886000,124.394000L44.065000,124.394000L44.110000,125.205000L44.146000,125.205000C44.371000,124.565000,44.911000,124.296000,45.334000,124.296000C45.460000,124.296000,45.523000,124.296000,45.622000,124.314000L45.622000,125.601000C45.523000,125.583000,45.406000,125.565000,45.253000,125.565000C44.749000,125.565000,44.407000,125.836000,44.316000,126.258000C44.298000,126.348000,44.289000,126.456000,44.289000,126.565000L44.289000,128.797000L42.921000,128.797000L42.921000,125.843000Z" transform="matrix(3 0 0 3 23.19087541000010 -271.25499846500031)" fill="rgb(0,0,0)" stroke="none" stroke-width="1"/><path id="e20k5bw1oio323" d="M20.681000,126.584000L20.681000,125.249000C20.681000,124.436000,20.021000,123.776000,19.207000,123.776000C18.393000,123.776000,17.734000,124.435000,17.734000,125.249000L17.734000,126.589000C17.323000,126.756000,17.031000,127.160000,17.031000,127.629000L17.031000,128.630000C17.031000,129.247000,17.536000,129.752000,18.154000,129.752000L20.276000,129.752000C20.893000,129.752000,21.399000,129.247000,21.399000,128.630000L21.399000,127.629000C21.398000,127.155000,21.099000,126.748000,20.681000,126.584000ZM19.432000,128.243000L19.432000,128.554000C19.432000,128.702000,19.335000,128.822000,19.215000,128.822000C19.096000,128.822000,18.998000,128.703000,18.998000,128.554000L18.998000,128.243000C18.915000,128.179000,18.861000,128.079000,18.861000,127.966000C18.861000,127.771000,19.019000,127.612000,19.215000,127.612000C19.411000,127.612000,19.569000,127.771000,19.569000,127.966000C19.568000,128.079000,19.514000,128.178000,19.432000,128.243000ZM19.946000,126.506000L18.468000,126.506000L18.468000,125.392000C18.468000,124.984000,18.799000,124.652000,19.207000,124.652000C19.615000,124.652000,19.946000,124.984000,19.946000,125.392000L19.946000,126.506000Z" transform="matrix(3 0 0 3 22.90700000000011 -271.49349846500030)" clip-rule="evenodd" fill="rgb(65,64,66)" fill-rule="evenodd" stroke="none" stroke-width="1"/><path id="e20k5bw1oio324" d="M42.642000,157.322000C42.642000,158.317000,42.231000,159.124000,41.724000,159.124000L26.817000,159.124000C26.310000,159.124000,25.899000,158.317000,25.899000,157.322000L25.899000,157.322000C25.899000,156.327000,26.310000,155.520000,26.817000,155.520000L41.724000,155.520000C42.231000,155.520000,42.642000,156.327000,42.642000,157.322000L42.642000,157.322000Z" transform="matrix(3 0 0 3 23.19087541000010 -271.25499846500026)" fill="rgb(0,0,0)" stroke="none" stroke-width="1"/><path id="e20k5bw1oio325" d="M57.524000,152.830000L11.016000,152.830000C6.836000,152.830000,3.435000,149.430000,3.435000,145.250000L3.435000,121.064000C3.435000,116.883000,6.836000,113.483000,11.016000,113.483000L57.525000,113.483000C61.705000,113.483000,65.106000,116.883000,65.106000,121.064000L65.106000,145.250000C65.105000,149.429000,61.705000,152.830000,57.524000,152.830000ZM11.016000,117.483000C9.041000,117.483000,7.435000,119.089000,7.435000,121.064000L7.435000,145.250000C7.435000,147.224000,9.041000,148.830000,11.016000,148.830000L57.525000,148.830000C59.500000,148.830000,61.106000,147.224000,61.106000,145.250000L61.106000,121.064000C61.106000,119.089000,59.500000,117.483000,57.525000,117.483000L11.016000,117.483000Z" transform="matrix(3 0 0 3 23.19087541000013 -271.33599846500033)" fill="rgb(0,0,0)" stroke="none" stroke-width="1"/></g></g></g></g><g id="e20k5bw1oio326_to" transform="translate(360.181500,136.688651)"><g id="e20k5bw1oio326" transform="translate(-390.181500,-136.133392)"><path id="e20k5bw1oio327" d="M314.032000,49.217000L280.396000,49.217000C277.610000,49.217000,277.033000,51.476000,277.033000,54.263000L277.033000,54.542000C277.033000,57.329000,277.610000,59.587000,280.396000,59.587000L314.032000,59.587000C316.819000,59.587000,317.396000,57.329000,317.396000,54.542000L317.396000,54.263000C317.396000,51.476000,316.819000,49.217000,314.032000,49.217000ZM298.365000,55.069000L284.197000,55.069000C283.830000,55.069000,283.531000,54.770000,283.531000,54.402000C283.531000,54.034000,283.830000,53.735000,284.197000,53.735000L298.365000,53.735000C298.732000,53.735000,299.031000,54.034000,299.031000,54.402000C299.031000,54.770000,298.732000,55.069000,298.365000,55.069000ZM305.531000,55.735000C304.795000,55.735000,304.198000,55.138000,304.198000,54.402000C304.198000,53.666000,304.795000,53.069000,305.531000,53.069000C306.267000,53.069000,306.864000,53.666000,306.864000,54.402000C306.864000,55.138000,306.267000,55.735000,305.531000,55.735000ZM311.531000,55.735000C310.795000,55.735000,310.198000,55.138000,310.198000,54.402000C310.198000,53.666000,310.795000,53.069000,311.531000,53.069000C312.267000,53.069000,312.864000,53.666000,312.864000,54.402000C312.864000,55.138000,312.267000,55.735000,311.531000,55.735000Z" transform="matrix(1 0 0 1 92.96699999999998 4.54650153000011)" fill="rgb(0,0,0)" stroke="none" stroke-width="1"/><path id="e20k5bw1oio328" d="M314.032000,34.921000L280.396000,34.921000C277.610000,34.921000,277.033000,37.180000,277.033000,39.966000L277.033000,40.246000C277.033000,43.033000,277.610000,45.291000,280.396000,45.291000L314.032000,45.291000C316.819000,45.291000,317.396000,43.033000,317.396000,40.246000L317.396000,39.966000C317.396000,37.180000,316.819000,34.921000,314.032000,34.921000ZM298.365000,40.773000L284.197000,40.773000C283.830000,40.773000,283.531000,40.475000,283.531000,40.106000C283.531000,39.737000,283.830000,39.439000,284.197000,39.439000L298.365000,39.439000C298.732000,39.439000,299.031000,39.737000,299.031000,40.106000C299.031000,40.475000,298.732000,40.773000,298.365000,40.773000ZM305.531000,41.440000C304.795000,41.440000,304.198000,40.843000,304.198000,40.107000C304.198000,39.371000,304.795000,38.774000,305.531000,38.774000C306.267000,38.774000,306.864000,39.371000,306.864000,40.107000C306.864000,40.843000,306.267000,41.440000,305.531000,41.440000ZM311.531000,41.440000C310.795000,41.440000,310.198000,40.843000,310.198000,40.107000C310.198000,39.371000,310.795000,38.774000,311.531000,38.774000C312.267000,38.774000,312.864000,39.371000,312.864000,40.107000C312.864000,40.843000,312.267000,41.440000,311.531000,41.440000Z" transform="matrix(1 0 0 1 92.96699999999998 4.54650153000011)" fill="rgb(0,0,0)" stroke="none" stroke-width="1"/><path id="e20k5bw1oio329" d="M314.032000,20.626000L280.396000,20.626000C277.610000,20.626000,277.033000,22.885000,277.033000,25.671000L277.033000,25.951000C277.033000,28.738000,277.610000,30.996000,280.396000,30.996000L314.032000,30.996000C316.819000,30.996000,317.396000,28.737000,317.396000,25.951000L317.396000,25.671000C317.396000,22.885000,316.819000,20.626000,314.032000,20.626000ZM298.365000,26.478000L284.197000,26.478000C283.830000,26.478000,283.531000,26.180000,283.531000,25.811000C283.531000,25.442000,283.830000,25.144000,284.197000,25.144000L298.365000,25.144000C298.732000,25.144000,299.031000,25.442000,299.031000,25.811000C299.031000,26.180000,298.732000,26.478000,298.365000,26.478000ZM305.531000,27.145000C304.795000,27.145000,304.198000,26.548000,304.198000,25.812000C304.198000,25.076000,304.795000,24.479000,305.531000,24.479000C306.267000,24.479000,306.864000,25.076000,306.864000,25.812000C306.864000,26.548000,306.267000,27.145000,305.531000,27.145000ZM311.531000,27.145000C310.795000,27.145000,310.198000,26.548000,310.198000,25.812000C310.198000,25.076000,310.795000,24.479000,311.531000,24.479000C312.267000,24.479000,312.864000,25.076000,312.864000,25.812000C312.864000,26.548000,312.267000,27.145000,311.531000,27.145000Z" transform="matrix(1 0 0 1 92.96699999999998 4.54650153000011)" fill="rgb(0,0,0)" stroke="none" stroke-width="1"/><path id="e20k5bw1oio330" d="M283.405000,15.180000C283.657000,15.333000,284.179000,15.513000,284.585000,15.513000C284.999000,15.513000,285.170000,15.369000,285.170000,15.144000C285.170000,14.919000,285.035000,14.811000,284.522000,14.640000C283.613000,14.334000,283.262000,13.839000,283.271000,13.316000C283.271000,12.497000,283.973000,11.876000,285.063000,11.876000C285.576000,11.876000,286.035000,11.993000,286.305000,12.128000L286.061000,13.073000C285.864000,12.965000,285.485000,12.821000,285.108000,12.821000C284.774000,12.821000,284.586000,12.956000,284.586000,13.181000C284.586000,13.388000,284.757000,13.496000,285.297000,13.685000C286.134000,13.973000,286.485000,14.396000,286.494000,15.044000C286.494000,15.863000,285.847000,16.466000,284.586000,16.466000C284.010000,16.466000,283.497000,16.340000,283.163000,16.160000L283.405000,15.180000Z" transform="matrix(1 0 0 1 92.96699999999998 4.54650153000011)" fill="rgb(0,0,0)" stroke="none" stroke-width="1"/><path id="e20k5bw1oio331" d="M288.373000,14.612000C288.418000,15.179000,288.977000,15.449000,289.615000,15.449000C290.084000,15.449000,290.462000,15.386000,290.831000,15.269000L291.012000,16.196000C290.561000,16.376000,290.012000,16.466000,289.418000,16.466000C287.924000,16.466000,287.068000,15.602000,287.068000,14.224000C287.068000,13.108000,287.761000,11.874000,289.292000,11.874000C290.715000,11.874000,291.254000,12.981000,291.254000,14.071000C291.254000,14.305000,291.228000,14.512000,291.209000,14.611000L288.373000,14.611000ZM289.984000,13.676000C289.984000,13.343000,289.840000,12.784000,289.211000,12.784000C288.635000,12.784000,288.400000,13.306000,288.364000,13.676000L289.984000,13.676000Z" transform="matrix(1 0 0 1 92.96699999999998 4.54650153000011)" fill="rgb(0,0,0)" stroke="none" stroke-width="1"/><path id="e20k5bw1oio332" d="M305.041000,13.424000C305.041000,12.776000,305.023000,12.353000,305.006000,11.975000L306.185000,11.975000L306.230000,12.785000L306.266000,12.785000C306.491000,12.146000,307.032000,11.876000,307.454000,11.876000C307.580000,11.876000,307.642000,11.876000,307.742000,11.894000L307.742000,13.182000C307.642000,13.164000,307.525000,13.146000,307.373000,13.146000C306.869000,13.146000,306.527000,13.416000,306.436000,13.839000C306.418000,13.929000,306.410000,14.037000,306.410000,14.145000L306.410000,16.377000L305.041000,16.377000L305.041000,13.424000Z" transform="matrix(1 0 0 1 92.96699999999998 4.54650153000011)" fill="rgb(0,0,0)" stroke="none" stroke-width="1"/><path id="e20k5bw1oio333" d="M301.341000,14.612000C301.386000,15.179000,301.945000,15.449000,302.583000,15.449000C303.052000,15.449000,303.430000,15.386000,303.799000,15.269000L303.980000,16.196000C303.529000,16.376000,302.980000,16.466000,302.386000,16.466000C300.892000,16.466000,300.036000,15.602000,300.036000,14.224000C300.036000,13.108000,300.729000,11.874000,302.260000,11.874000C303.683000,11.874000,304.222000,12.981000,304.222000,14.071000C304.222000,14.305000,304.196000,14.512000,304.177000,14.611000L301.341000,14.611000ZM302.953000,13.676000C302.953000,13.343000,302.809000,12.784000,302.180000,12.784000C301.604000,12.784000,301.369000,13.306000,301.333000,13.676000L302.953000,13.676000Z" transform="matrix(1 0 0 1 92.96699999999998 4.54650153000011)" fill="rgb(0,0,0)" stroke="none" stroke-width="1"/><path id="e20k5bw1oio334" d="M296.671000,11.975000L297.265000,14.018000C297.372000,14.387000,297.454000,14.738000,297.517000,15.089000L297.544000,15.089000C297.616000,14.729000,297.689000,14.396000,297.786000,14.018000L298.354000,11.975000L299.793000,11.975000L298.154000,16.377000L296.787000,16.377000L295.183000,11.975000L296.671000,11.975000Z" transform="matrix(1 0 0 1 92.96699999999998 4.54650153000011)" fill="rgb(0,0,0)" stroke="none" stroke-width="1"/><path id="e20k5bw1oio335" d="M292.072000,13.424000C292.072000,12.776000,292.054000,12.353000,292.036000,11.975000L293.215000,11.975000L293.260000,12.785000L293.297000,12.785000C293.522000,12.146000,294.062000,11.876000,294.485000,11.876000C294.612000,11.876000,294.674000,11.876000,294.774000,11.894000L294.774000,13.182000C294.674000,13.164000,294.557000,13.146000,294.405000,13.146000C293.900000,13.146000,293.558000,13.416000,293.468000,13.839000C293.449000,13.929000,293.441000,14.037000,293.441000,14.145000L293.441000,16.377000L292.073000,16.377000L292.073000,13.424000Z" transform="matrix(1 0 0 1 92.96699999999998 4.54650153000011)" fill="rgb(0,0,0)" stroke="none" stroke-width="1"/><path id="e20k5bw1oio336" d="M311.854000,11.741000L311.835000,11.741000L310.720000,12.272000L310.494000,11.246000L312.042000,10.526000L313.177000,10.526000L313.177000,16.378000L311.854000,16.378000L311.854000,11.741000Z" transform="matrix(1 0 0 1 92.96699999999998 4.54650153000011)" fill="rgb(0,0,0)" stroke="none" stroke-width="1"/><path id="e20k5bw1oio337" d="M283.405000,143.180000C283.657000,143.333000,284.179000,143.513000,284.585000,143.513000C284.999000,143.513000,285.170000,143.368000,285.170000,143.144000C285.170000,142.920000,285.035000,142.811000,284.522000,142.640000C283.613000,142.333000,283.262000,141.839000,283.271000,141.316000C283.271000,140.498000,283.973000,139.877000,285.063000,139.877000C285.576000,139.877000,286.035000,139.994000,286.305000,140.129000L286.061000,141.074000C285.864000,140.966000,285.485000,140.822000,285.108000,140.822000C284.774000,140.822000,284.586000,140.957000,284.586000,141.181000C284.586000,141.388000,284.757000,141.496000,285.297000,141.685000C286.134000,141.974000,286.485000,142.397000,286.494000,143.044000C286.494000,143.864000,285.847000,144.467000,284.586000,144.467000C284.010000,144.467000,283.497000,144.341000,283.163000,144.161000L283.405000,143.180000Z" transform="matrix(1 0 0 1 92.96699999999998 4.54650153000011)" fill="rgb(0,0,0)" stroke="none" stroke-width="1"/><path id="e20k5bw1oio338" d="M305.041000,205.424000C305.041000,204.777000,305.023000,204.353000,305.006000,203.975000L306.185000,203.975000L306.230000,204.785000L306.266000,204.785000C306.491000,204.146000,307.032000,203.877000,307.454000,203.877000C307.580000,203.877000,307.642000,203.877000,307.742000,203.895000L307.742000,205.182000C307.642000,205.164000,307.525000,205.147000,307.373000,205.147000C306.869000,205.147000,306.527000,205.417000,306.436000,205.840000C306.418000,205.930000,306.410000,206.037000,306.410000,206.146000L306.410000,208.378000L305.041000,208.378000L305.041000,205.424000Z" transform="matrix(1 0 0 1 92.96699999999998 4.54650153000011)" fill="rgb(0,0,0)" stroke="none" stroke-width="1"/><path id="e20k5bw1oio339" d="M301.341000,206.613000C301.386000,207.180000,301.945000,207.451000,302.583000,207.451000C303.052000,207.451000,303.430000,207.388000,303.799000,207.270000L303.980000,208.197000C303.529000,208.378000,302.980000,208.468000,302.386000,208.468000C300.892000,208.468000,300.036000,207.604000,300.036000,206.227000C300.036000,205.110000,300.729000,203.877000,302.260000,203.877000C303.683000,203.877000,304.222000,204.984000,304.222000,206.073000C304.222000,206.306000,304.196000,206.513000,304.177000,206.613000L301.341000,206.613000ZM302.953000,205.677000C302.953000,205.343000,302.809000,204.784000,302.180000,204.784000C301.604000,204.784000,301.369000,205.307000,301.333000,205.677000L302.953000,205.677000Z" transform="matrix(1 0 0 1 92.96699999999998 4.54650153000011)" fill="rgb(0,0,0)" stroke="none" stroke-width="1"/><path id="e20k5bw1oio340" d="M296.671000,203.975000L297.265000,206.019000C297.372000,206.388000,297.454000,206.739000,297.517000,207.089000L297.544000,207.089000C297.616000,206.730000,297.689000,206.397000,297.786000,206.019000L298.354000,203.975000L299.793000,203.975000L298.154000,208.377000L296.787000,208.377000L295.183000,203.975000L296.671000,203.975000Z" transform="matrix(1 0 0 1 92.96699999999998 4.54650153000011)" fill="rgb(0,0,0)" stroke="none" stroke-width="1"/><path id="e20k5bw1oio341" d="M292.072000,205.424000C292.072000,204.777000,292.054000,204.353000,292.036000,203.975000L293.215000,203.975000L293.260000,204.785000L293.297000,204.785000C293.522000,204.146000,294.062000,203.877000,294.485000,203.877000C294.612000,203.877000,294.674000,203.877000,294.774000,203.895000L294.774000,205.182000C294.674000,205.164000,294.557000,205.147000,294.405000,205.147000C293.900000,205.147000,293.558000,205.417000,293.468000,205.840000C293.449000,205.930000,293.441000,206.037000,293.441000,206.146000L293.441000,208.378000L292.073000,208.378000L292.073000,205.424000Z" transform="matrix(1 0 0 1 92.96699999999998 4.54650153000011)" fill="rgb(0,0,0)" stroke="none" stroke-width="1"/><path id="e20k5bw1oio342" d="M288.373000,206.613000C288.418000,207.180000,288.977000,207.451000,289.615000,207.451000C290.084000,207.451000,290.462000,207.388000,290.831000,207.270000L291.012000,208.197000C290.561000,208.378000,290.012000,208.468000,289.418000,208.468000C287.924000,208.468000,287.068000,207.604000,287.068000,206.227000C287.068000,205.110000,287.761000,203.877000,289.292000,203.877000C290.715000,203.877000,291.254000,204.984000,291.254000,206.073000C291.254000,206.306000,291.228000,206.513000,291.209000,206.613000L288.373000,206.613000ZM289.984000,205.677000C289.984000,205.343000,289.840000,204.784000,289.211000,204.784000C288.635000,204.784000,288.400000,205.307000,288.364000,205.677000L289.984000,205.677000Z" transform="matrix(1 0 0 1 92.96699999999998 4.54650153000011)" fill="rgb(0,0,0)" stroke="none" stroke-width="1"/><path id="e20k5bw1oio343" d="M283.405000,207.180000C283.657000,207.333000,284.179000,207.513000,284.585000,207.513000C284.999000,207.513000,285.170000,207.368000,285.170000,207.144000C285.170000,206.920000,285.035000,206.811000,284.522000,206.640000C283.613000,206.333000,283.262000,205.839000,283.271000,205.316000C283.271000,204.498000,283.973000,203.877000,285.063000,203.877000C285.576000,203.877000,286.035000,203.994000,286.305000,204.129000L286.061000,205.074000C285.864000,204.966000,285.485000,204.822000,285.108000,204.822000C284.774000,204.822000,284.586000,204.957000,284.586000,205.181000C284.586000,205.388000,284.757000,205.496000,285.297000,205.685000C286.134000,205.974000,286.485000,206.397000,286.494000,207.044000C286.494000,207.864000,285.847000,208.467000,284.586000,208.467000C284.010000,208.467000,283.497000,208.341000,283.163000,208.161000L283.405000,207.180000Z" transform="matrix(1 0 0 1 92.96699999999998 4.54650153000011)" fill="rgb(0,0,0)" stroke="none" stroke-width="1"/><path id="e20k5bw1oio344" d="M314.032000,241.216000L280.396000,241.216000C277.610000,241.216000,277.033000,243.476000,277.033000,246.263000L277.033000,246.542000C277.033000,249.329000,277.610000,251.587000,280.396000,251.587000L314.032000,251.587000C316.819000,251.587000,317.396000,249.329000,317.396000,246.542000L317.396000,246.263000C317.396000,243.476000,316.819000,241.216000,314.032000,241.216000ZM298.365000,247.070000L284.197000,247.070000C283.830000,247.070000,283.531000,246.771000,283.531000,246.402000C283.531000,246.035000,283.830000,245.736000,284.197000,245.736000L298.365000,245.736000C298.732000,245.736000,299.031000,246.035000,299.031000,246.402000C299.031000,246.771000,298.732000,247.070000,298.365000,247.070000ZM305.531000,247.736000C304.795000,247.736000,304.198000,247.138000,304.198000,246.402000C304.198000,245.666000,304.795000,245.070000,305.531000,245.070000C306.267000,245.070000,306.864000,245.666000,306.864000,246.402000C306.864000,247.138000,306.267000,247.736000,305.531000,247.736000ZM311.531000,247.736000C310.795000,247.736000,310.198000,247.138000,310.198000,246.402000C310.198000,245.666000,310.795000,245.070000,311.531000,245.070000C312.267000,245.070000,312.864000,245.666000,312.864000,246.402000C312.864000,247.138000,312.267000,247.736000,311.531000,247.736000Z" transform="matrix(1 0 0 1 92.96699999999998 4.54650153000011)" fill="rgb(0,0,0)" stroke="none" stroke-width="1"/><path id="e20k5bw1oio345" d="M314.032000,226.921000L280.396000,226.921000C277.610000,226.921000,277.033000,229.181000,277.033000,231.966000L277.033000,232.247000C277.033000,235.034000,277.610000,237.292000,280.396000,237.292000L314.032000,237.292000C316.819000,237.292000,317.396000,235.034000,317.396000,232.247000L317.396000,231.966000C317.396000,229.181000,316.819000,226.921000,314.032000,226.921000ZM298.365000,232.773000L284.197000,232.773000C283.830000,232.773000,283.531000,232.476000,283.531000,232.107000C283.531000,231.740000,283.830000,231.441000,284.197000,231.441000L298.365000,231.441000C298.732000,231.441000,299.031000,231.740000,299.031000,232.107000C299.031000,232.476000,298.732000,232.773000,298.365000,232.773000ZM305.531000,233.441000C304.795000,233.441000,304.198000,232.843000,304.198000,232.107000C304.198000,231.371000,304.795000,230.775000,305.531000,230.775000C306.267000,230.775000,306.864000,231.371000,306.864000,232.107000C306.864000,232.843000,306.267000,233.441000,305.531000,233.441000ZM311.531000,233.441000C310.795000,233.441000,310.198000,232.843000,310.198000,232.107000C310.198000,231.371000,310.795000,230.775000,311.531000,230.775000C312.267000,230.775000,312.864000,231.371000,312.864000,232.107000C312.864000,232.843000,312.267000,233.441000,311.531000,233.441000Z" transform="matrix(1 0 0 1 92.96699999999998 4.54650153000011)" fill="rgb(0,0,0)" stroke="none" stroke-width="1"/><path id="e20k5bw1oio346" d="M314.032000,212.626000L280.396000,212.626000C277.610000,212.626000,277.033000,214.884000,277.033000,217.671000L277.033000,217.952000C277.033000,220.737000,277.610000,222.997000,280.396000,222.997000L314.032000,222.997000C316.819000,222.997000,317.396000,220.737000,317.396000,217.952000L317.396000,217.671000C317.396000,214.884000,316.819000,212.626000,314.032000,212.626000ZM298.365000,218.478000L284.197000,218.478000C283.830000,218.478000,283.531000,218.179000,283.531000,217.812000C283.531000,217.443000,283.830000,217.146000,284.197000,217.146000L298.365000,217.146000C298.732000,217.146000,299.031000,217.443000,299.031000,217.812000C299.031000,218.179000,298.732000,218.478000,298.365000,218.478000ZM305.531000,219.144000C304.795000,219.144000,304.198000,218.548000,304.198000,217.812000C304.198000,217.076000,304.795000,216.478000,305.531000,216.478000C306.267000,216.478000,306.864000,217.076000,306.864000,217.812000C306.864000,218.548000,306.267000,219.144000,305.531000,219.144000ZM311.531000,219.144000C310.795000,219.144000,310.198000,218.548000,310.198000,217.812000C310.198000,217.076000,310.795000,216.478000,311.531000,216.478000C312.267000,216.478000,312.864000,217.076000,312.864000,217.812000C312.864000,218.548000,312.267000,219.144000,311.531000,219.144000Z" transform="matrix(1 0 0 1 92.96699999999998 4.54650153000011)" fill="rgb(0,0,0)" stroke="none" stroke-width="1"/><path id="e20k5bw1oio347" d="M314.032000,177.216000L280.396000,177.216000C277.610000,177.216000,277.033000,179.476000,277.033000,182.263000L277.033000,182.542000C277.033000,185.329000,277.610000,187.587000,280.396000,187.587000L314.032000,187.587000C316.819000,187.587000,317.396000,185.329000,317.396000,182.542000L317.396000,182.263000C317.396000,179.476000,316.819000,177.216000,314.032000,177.216000ZM298.365000,183.070000L284.197000,183.070000C283.830000,183.070000,283.531000,182.771000,283.531000,182.402000C283.531000,182.035000,283.830000,181.736000,284.197000,181.736000L298.365000,181.736000C298.732000,181.736000,299.031000,182.035000,299.031000,182.402000C299.031000,182.771000,298.732000,183.070000,298.365000,183.070000ZM305.531000,183.736000C304.795000,183.736000,304.198000,183.138000,304.198000,182.402000C304.198000,181.666000,304.795000,181.070000,305.531000,181.070000C306.267000,181.070000,306.864000,181.666000,306.864000,182.402000C306.864000,183.138000,306.267000,183.736000,305.531000,183.736000ZM311.531000,183.736000C310.795000,183.736000,310.198000,183.138000,310.198000,182.402000C310.198000,181.666000,310.795000,181.070000,311.531000,181.070000C312.267000,181.070000,312.864000,181.666000,312.864000,182.402000C312.864000,183.138000,312.267000,183.736000,311.531000,183.736000Z" transform="matrix(1 0 0 1 92.96699999999998 4.54650153000011)" fill="rgb(0,0,0)" stroke="none" stroke-width="1"/><path id="e20k5bw1oio348" d="M314.032000,162.921000L280.396000,162.921000C277.610000,162.921000,277.033000,165.181000,277.033000,167.966000L277.033000,168.247000C277.033000,171.034000,277.610000,173.292000,280.396000,173.292000L314.032000,173.292000C316.819000,173.292000,317.396000,171.034000,317.396000,168.247000L317.396000,167.966000C317.396000,165.181000,316.819000,162.921000,314.032000,162.921000ZM298.365000,168.773000L284.197000,168.773000C283.830000,168.773000,283.531000,168.476000,283.531000,168.107000C283.531000,167.740000,283.830000,167.441000,284.197000,167.441000L298.365000,167.441000C298.732000,167.441000,299.031000,167.740000,299.031000,168.107000C299.031000,168.476000,298.732000,168.773000,298.365000,168.773000ZM305.531000,169.441000C304.795000,169.441000,304.198000,168.843000,304.198000,168.107000C304.198000,167.371000,304.795000,166.775000,305.531000,166.775000C306.267000,166.775000,306.864000,167.371000,306.864000,168.107000C306.864000,168.843000,306.267000,169.441000,305.531000,169.441000ZM311.531000,169.441000C310.795000,169.441000,310.198000,168.843000,310.198000,168.107000C310.198000,167.371000,310.795000,166.775000,311.531000,166.775000C312.267000,166.775000,312.864000,167.371000,312.864000,168.107000C312.864000,168.843000,312.267000,169.441000,311.531000,169.441000Z" transform="matrix(1 0 0 1 92.96699999999998 4.54650153000011)" fill="rgb(0,0,0)" stroke="none" stroke-width="1"/><path id="e20k5bw1oio349" d="M314.032000,148.626000L280.396000,148.626000C277.610000,148.626000,277.033000,150.884000,277.033000,153.671000L277.033000,153.952000C277.033000,156.737000,277.610000,158.997000,280.396000,158.997000L314.032000,158.997000C316.819000,158.997000,317.396000,156.737000,317.396000,153.952000L317.396000,153.671000C317.396000,150.884000,316.819000,148.626000,314.032000,148.626000ZM298.365000,154.478000L284.197000,154.478000C283.830000,154.478000,283.531000,154.179000,283.531000,153.812000C283.531000,153.443000,283.830000,153.146000,284.197000,153.146000L298.365000,153.146000C298.732000,153.146000,299.031000,153.443000,299.031000,153.812000C299.031000,154.179000,298.732000,154.478000,298.365000,154.478000ZM305.531000,155.144000C304.795000,155.144000,304.198000,154.548000,304.198000,153.812000C304.198000,153.076000,304.795000,152.478000,305.531000,152.478000C306.267000,152.478000,306.864000,153.076000,306.864000,153.812000C306.864000,154.548000,306.267000,155.144000,305.531000,155.144000ZM311.531000,155.144000C310.795000,155.144000,310.198000,154.548000,310.198000,153.812000C310.198000,153.076000,310.795000,152.478000,311.531000,152.478000C312.267000,152.478000,312.864000,153.076000,312.864000,153.812000C312.864000,154.548000,312.267000,155.144000,311.531000,155.144000Z" transform="matrix(1 0 0 1 92.96699999999998 4.54650153000011)" fill="rgb(0,0,0)" stroke="none" stroke-width="1"/><path id="e20k5bw1oio350" d="M314.032000,113.216000L280.396000,113.216000C277.610000,113.216000,277.033000,115.476000,277.033000,118.263000L277.033000,118.542000C277.033000,121.329000,277.610000,123.587000,280.396000,123.587000L314.032000,123.587000C316.819000,123.587000,317.396000,121.329000,317.396000,118.542000L317.396000,118.263000C317.396000,115.476000,316.819000,113.216000,314.032000,113.216000ZM298.365000,119.070000L284.197000,119.070000C283.830000,119.070000,283.531000,118.771000,283.531000,118.402000C283.531000,118.035000,283.830000,117.736000,284.197000,117.736000L298.365000,117.736000C298.732000,117.736000,299.031000,118.035000,299.031000,118.402000C299.031000,118.771000,298.732000,119.070000,298.365000,119.070000ZM305.531000,119.736000C304.795000,119.736000,304.198000,119.138000,304.198000,118.402000C304.198000,117.666000,304.795000,117.070000,305.531000,117.070000C306.267000,117.070000,306.864000,117.666000,306.864000,118.402000C306.864000,119.138000,306.267000,119.736000,305.531000,119.736000ZM311.531000,119.736000C310.795000,119.736000,310.198000,119.138000,310.198000,118.402000C310.198000,117.666000,310.795000,117.070000,311.531000,117.070000C312.267000,117.070000,312.864000,117.666000,312.864000,118.402000C312.864000,119.138000,312.267000,119.736000,311.531000,119.736000Z" transform="matrix(1 0 0 1 92.96699999999998 4.54650153000011)" fill="rgb(0,0,0)" stroke="none" stroke-width="1"/><path id="e20k5bw1oio351" d="M314.032000,98.921000L280.396000,98.921000C277.610000,98.921000,277.033000,101.180000,277.033000,103.966000L277.033000,104.247000C277.033000,107.033000,277.610000,109.292000,280.396000,109.292000L314.032000,109.292000C316.819000,109.292000,317.396000,107.033000,317.396000,104.247000L317.396000,103.966000C317.396000,101.180000,316.819000,98.921000,314.032000,98.921000ZM298.365000,104.773000L284.197000,104.773000C283.830000,104.773000,283.531000,104.475000,283.531000,104.107000C283.531000,103.739000,283.830000,103.441000,284.197000,103.441000L298.365000,103.441000C298.732000,103.441000,299.031000,103.739000,299.031000,104.107000C299.031000,104.475000,298.732000,104.773000,298.365000,104.773000ZM305.531000,105.440000C304.795000,105.440000,304.198000,104.843000,304.198000,104.107000C304.198000,103.371000,304.795000,102.774000,305.531000,102.774000C306.267000,102.774000,306.864000,103.371000,306.864000,104.107000C306.864000,104.843000,306.267000,105.440000,305.531000,105.440000ZM311.531000,105.440000C310.795000,105.440000,310.198000,104.843000,310.198000,104.107000C310.198000,103.371000,310.795000,102.774000,311.531000,102.774000C312.267000,102.774000,312.864000,103.371000,312.864000,104.107000C312.864000,104.843000,312.267000,105.440000,311.531000,105.440000Z" transform="matrix(1 0 0 1 92.96699999999998 4.54650153000011)" fill="rgb(0,0,0)" stroke="none" stroke-width="1"/><path id="e20k5bw1oio352" d="M314.032000,84.626000L280.396000,84.626000C277.610000,84.626000,277.033000,86.884000,277.033000,89.671000L277.033000,89.951000C277.033000,92.737000,277.610000,94.997000,280.396000,94.997000L314.032000,94.997000C316.819000,94.997000,317.396000,92.737000,317.396000,89.951000L317.396000,89.671000C317.396000,86.884000,316.819000,84.626000,314.032000,84.626000ZM298.365000,90.478000L284.197000,90.478000C283.830000,90.478000,283.531000,90.179000,283.531000,89.812000C283.531000,89.443000,283.830000,89.145000,284.197000,89.145000L298.365000,89.145000C298.732000,89.145000,299.031000,89.443000,299.031000,89.812000C299.031000,90.179000,298.732000,90.478000,298.365000,90.478000ZM305.531000,91.144000C304.795000,91.144000,304.198000,90.548000,304.198000,89.812000C304.198000,89.076000,304.795000,88.478000,305.531000,88.478000C306.267000,88.478000,306.864000,89.076000,306.864000,89.812000C306.864000,90.548000,306.267000,91.144000,305.531000,91.144000ZM311.531000,91.144000C310.795000,91.144000,310.198000,90.548000,310.198000,89.812000C310.198000,89.076000,310.795000,88.478000,311.531000,88.478000C312.267000,88.478000,312.864000,89.076000,312.864000,89.812000C312.864000,90.548000,312.267000,91.144000,311.531000,91.144000Z" transform="matrix(1 0 0 1 92.96699999999998 4.54650153000011)" fill="rgb(0,0,0)" stroke="none" stroke-width="1"/><path id="e20k5bw1oio353" d="M312.529000,208.377000L312.529000,206.981000L309.937000,206.981000L309.937000,206.090000L312.152000,202.525000L313.826000,202.525000L313.826000,205.955000L314.528000,205.955000L314.528000,206.981000L313.826000,206.981000L313.826000,208.377000L312.529000,208.377000ZM312.529000,205.956000L312.529000,204.660000C312.529000,204.308000,312.548000,203.949000,312.574000,203.570000L312.539000,203.570000C312.350000,203.949000,312.197000,204.291000,311.998000,204.660000L311.215000,205.937000L311.215000,205.956000L312.529000,205.956000Z" transform="matrix(1 0 0 1 92.96699999999998 4.54650153000011)" fill="rgb(0,0,0)" stroke="none" stroke-width="1"/><path id="e20k5bw1oio354" d="M288.373000,142.613000C288.418000,143.180000,288.977000,143.451000,289.615000,143.451000C290.084000,143.451000,290.462000,143.388000,290.831000,143.270000L291.012000,144.197000C290.561000,144.378000,290.012000,144.468000,289.418000,144.468000C287.924000,144.468000,287.068000,143.604000,287.068000,142.227000C287.068000,141.110000,287.761000,139.877000,289.292000,139.877000C290.715000,139.877000,291.254000,140.984000,291.254000,142.073000C291.254000,142.306000,291.228000,142.513000,291.209000,142.613000L288.373000,142.613000ZM289.984000,141.677000C289.984000,141.343000,289.840000,140.784000,289.211000,140.784000C288.635000,140.784000,288.400000,141.307000,288.364000,141.677000L289.984000,141.677000Z" transform="matrix(1 0 0 1 92.96699999999998 4.54650153000011)" fill="rgb(0,0,0)" stroke="none" stroke-width="1"/><path id="e20k5bw1oio355" d="M292.072000,141.424000C292.072000,140.777000,292.054000,140.353000,292.036000,139.975000L293.215000,139.975000L293.260000,140.785000L293.297000,140.785000C293.522000,140.146000,294.062000,139.877000,294.485000,139.877000C294.612000,139.877000,294.674000,139.877000,294.774000,139.895000L294.774000,141.182000C294.674000,141.164000,294.557000,141.147000,294.405000,141.147000C293.900000,141.147000,293.558000,141.417000,293.468000,141.840000C293.449000,141.930000,293.441000,142.037000,293.441000,142.146000L293.441000,144.378000L292.073000,144.378000L292.073000,141.424000Z" transform="matrix(1 0 0 1 92.96699999999998 4.54650153000011)" fill="rgb(0,0,0)" stroke="none" stroke-width="1"/><path id="e20k5bw1oio356" d="M296.671000,139.975000L297.265000,142.019000C297.372000,142.388000,297.454000,142.739000,297.517000,143.089000L297.544000,143.089000C297.616000,142.730000,297.689000,142.397000,297.786000,142.019000L298.354000,139.975000L299.793000,139.975000L298.154000,144.377000L296.787000,144.377000L295.183000,139.975000L296.671000,139.975000Z" transform="matrix(1 0 0 1 92.96699999999998 4.54650153000011)" fill="rgb(0,0,0)" stroke="none" stroke-width="1"/><path id="e20k5bw1oio357" d="M301.341000,142.613000C301.386000,143.180000,301.945000,143.451000,302.583000,143.451000C303.052000,143.451000,303.430000,143.388000,303.799000,143.270000L303.980000,144.197000C303.529000,144.378000,302.980000,144.468000,302.386000,144.468000C300.892000,144.468000,300.036000,143.604000,300.036000,142.227000C300.036000,141.110000,300.729000,139.877000,302.260000,139.877000C303.683000,139.877000,304.222000,140.984000,304.222000,142.073000C304.222000,142.306000,304.196000,142.513000,304.177000,142.613000L301.341000,142.613000ZM302.953000,141.677000C302.953000,141.343000,302.809000,140.784000,302.180000,140.784000C301.604000,140.784000,301.369000,141.307000,301.333000,141.677000L302.953000,141.677000Z" transform="matrix(1 0 0 1 92.96699999999998 4.54650153000011)" fill="rgb(0,0,0)" stroke="none" stroke-width="1"/><path id="e20k5bw1oio358" d="M305.041000,141.424000C305.041000,140.777000,305.023000,140.353000,305.006000,139.975000L306.185000,139.975000L306.230000,140.785000L306.266000,140.785000C306.491000,140.146000,307.032000,139.877000,307.454000,139.877000C307.580000,139.877000,307.642000,139.877000,307.742000,139.895000L307.742000,141.182000C307.642000,141.164000,307.525000,141.147000,307.373000,141.147000C306.869000,141.147000,306.527000,141.417000,306.436000,141.840000C306.418000,141.930000,306.410000,142.037000,306.410000,142.146000L306.410000,144.378000L305.041000,144.378000L305.041000,141.424000Z" transform="matrix(1 0 0 1 92.96699999999998 4.54650153000011)" fill="rgb(0,0,0)" stroke="none" stroke-width="1"/><path id="e20k5bw1oio359" d="M310.351000,143.037000C310.593000,143.162000,311.152000,143.396000,311.710000,143.396000C312.421000,143.396000,312.780000,143.054000,312.780000,142.613000C312.780000,142.037000,312.204000,141.776000,311.601000,141.776000L311.043000,141.776000L311.043000,140.795000L311.574000,140.795000C312.033000,140.785000,312.617000,140.615000,312.617000,140.119000C312.617000,139.768000,312.330000,139.508000,311.754000,139.508000C311.276000,139.508000,310.773000,139.715000,310.529000,139.859000L310.250000,138.869000C310.602000,138.643000,311.304000,138.429000,312.060000,138.429000C313.311000,138.429000,314.004000,139.085000,314.004000,139.887000C314.004000,140.508000,313.653000,140.994000,312.934000,141.246000L312.934000,141.265000C313.635000,141.390000,314.203000,141.921000,314.203000,142.687000C314.203000,143.722000,313.294000,144.478000,311.808000,144.478000C311.051000,144.478000,310.412000,144.281000,310.071000,144.064000L310.351000,143.037000Z" transform="matrix(1 0 0 1 92.96699999999998 4.54650153000011)" fill="rgb(0,0,0)" stroke="none" stroke-width="1"/><path id="e20k5bw1oio360" d="M310.107000,80.377000L310.107000,79.549000L310.864000,78.864000C312.142000,77.721000,312.763000,77.063000,312.781000,76.380000C312.781000,75.903000,312.494000,75.525000,311.818000,75.525000C311.314000,75.525000,310.873000,75.777000,310.567000,76.011000L310.179000,75.030000C310.620000,74.697000,311.305000,74.427000,312.097000,74.427000C313.420000,74.427000,314.150000,75.200000,314.150000,76.263000C314.150000,77.244000,313.439000,78.028000,312.592000,78.784000L312.052000,79.233000L312.052000,79.251000L314.257000,79.251000L314.257000,80.377000L310.107000,80.377000Z" transform="matrix(1 0 0 1 92.96699999999998 4.54650153000011)" fill="rgb(0,0,0)" stroke="none" stroke-width="1"/><path id="e20k5bw1oio361" d="M305.041000,77.424000C305.041000,76.777000,305.023000,76.353000,305.006000,75.975000L306.185000,75.975000L306.230000,76.785000L306.266000,76.785000C306.491000,76.146000,307.032000,75.877000,307.454000,75.877000C307.580000,75.877000,307.642000,75.877000,307.742000,75.895000L307.742000,77.182000C307.642000,77.164000,307.525000,77.147000,307.373000,77.147000C306.869000,77.147000,306.527000,77.417000,306.436000,77.840000C306.418000,77.930000,306.410000,78.037000,306.410000,78.146000L306.410000,80.378000L305.041000,80.378000L305.041000,77.424000Z" transform="matrix(1 0 0 1 92.96699999999998 4.54650153000011)" fill="rgb(0,0,0)" stroke="none" stroke-width="1"/><path id="e20k5bw1oio362" d="M301.341000,78.613000C301.386000,79.180000,301.945000,79.451000,302.583000,79.451000C303.052000,79.451000,303.430000,79.388000,303.799000,79.270000L303.980000,80.197000C303.529000,80.378000,302.980000,80.468000,302.386000,80.468000C300.892000,80.468000,300.036000,79.604000,300.036000,78.227000C300.036000,77.110000,300.729000,75.877000,302.260000,75.877000C303.683000,75.877000,304.222000,76.984000,304.222000,78.073000C304.222000,78.306000,304.196000,78.513000,304.177000,78.613000L301.341000,78.613000ZM302.953000,77.677000C302.953000,77.343000,302.809000,76.784000,302.180000,76.784000C301.604000,76.784000,301.369000,77.307000,301.333000,77.677000L302.953000,77.677000Z" transform="matrix(1 0 0 1 92.96699999999998 4.54650153000011)" fill="rgb(0,0,0)" stroke="none" stroke-width="1"/><path id="e20k5bw1oio363" d="M296.671000,75.975000L297.265000,78.019000C297.372000,78.388000,297.454000,78.739000,297.517000,79.089000L297.544000,79.089000C297.616000,78.730000,297.689000,78.397000,297.786000,78.019000L298.354000,75.975000L299.793000,75.975000L298.154000,80.377000L296.787000,80.377000L295.183000,75.975000L296.671000,75.975000Z" transform="matrix(1 0 0 1 92.96699999999998 4.54650153000011)" fill="rgb(0,0,0)" stroke="none" stroke-width="1"/><path id="e20k5bw1oio364" d="M292.072000,77.424000C292.072000,76.777000,292.054000,76.353000,292.036000,75.975000L293.215000,75.975000L293.260000,76.785000L293.297000,76.785000C293.522000,76.146000,294.062000,75.877000,294.485000,75.877000C294.612000,75.877000,294.674000,75.877000,294.774000,75.895000L294.774000,77.182000C294.674000,77.164000,294.557000,77.147000,294.405000,77.147000C293.900000,77.147000,293.558000,77.417000,293.468000,77.840000C293.449000,77.930000,293.441000,78.037000,293.441000,78.146000L293.441000,80.378000L292.073000,80.378000L292.073000,77.424000Z" transform="matrix(1 0 0 1 92.96699999999998 4.54650153000011)" fill="rgb(0,0,0)" stroke="none" stroke-width="1"/><path id="e20k5bw1oio365" d="M283.405000,79.180000C283.657000,79.333000,284.179000,79.513000,284.585000,79.513000C284.999000,79.513000,285.170000,79.368000,285.170000,79.144000C285.170000,78.920000,285.035000,78.811000,284.522000,78.640000C283.613000,78.333000,283.262000,77.839000,283.271000,77.316000C283.271000,76.498000,283.973000,75.877000,285.063000,75.877000C285.576000,75.877000,286.035000,75.994000,286.305000,76.129000L286.061000,77.074000C285.864000,76.966000,285.485000,76.822000,285.108000,76.822000C284.774000,76.822000,284.586000,76.957000,284.586000,77.181000C284.586000,77.388000,284.757000,77.496000,285.297000,77.685000C286.134000,77.974000,286.485000,78.397000,286.494000,79.044000C286.494000,79.864000,285.847000,80.467000,284.586000,80.467000C284.010000,80.467000,283.497000,80.341000,283.163000,80.161000L283.405000,79.180000Z" transform="matrix(1 0 0 1 92.96699999999998 4.54650153000011)" fill="rgb(0,0,0)" stroke="none" stroke-width="1"/><path id="e20k5bw1oio366" d="M288.373000,78.613000C288.418000,79.180000,288.977000,79.451000,289.615000,79.451000C290.084000,79.451000,290.462000,79.388000,290.831000,79.270000L291.012000,80.197000C290.561000,80.378000,290.012000,80.468000,289.418000,80.468000C287.924000,80.468000,287.068000,79.604000,287.068000,78.227000C287.068000,77.110000,287.761000,75.877000,289.292000,75.877000C290.715000,75.877000,291.254000,76.984000,291.254000,78.073000C291.254000,78.306000,291.228000,78.513000,291.209000,78.613000L288.373000,78.613000ZM289.984000,77.677000C289.984000,77.343000,289.840000,76.784000,289.211000,76.784000C288.635000,76.784000,288.400000,77.307000,288.364000,77.677000L289.984000,77.677000Z" transform="matrix(1 0 0 1 92.96699999999998 4.54650153000011)" fill="rgb(0,0,0)" stroke="none" stroke-width="1"/></g></g></svg>
