<?xml version="1.0" encoding="utf-8"?>
<!-- Generator: Adobe Illustrator 16.0.0, SVG Export Plug-In . SVG Version: 6.00 Build 0)  -->
<!DOCTYPE svg PUBLIC "-//W3C//DTD SVG 1.1//EN" "http://www.w3.org/Graphics/SVG/1.1/DTD/svg11.dtd">
<svg version="1.1" xmlns="http://www.w3.org/2000/svg" xmlns:xlink="http://www.w3.org/1999/xlink" x="0px" y="0px" width="722px"
	 height="216.659px" viewBox="0 0 722 216.659" enable-background="new 0 0 722 216.659" xml:space="preserve">
<g id="Layer_2" display="none">
	
		<image display="inline" overflow="visible" width="1500" height="1225" xlink:href="7035CA86.jpg"  transform="matrix(1 0 0 1 -340.3335 -515.1128)">
	</image>
</g>
<g id="Layer_4">
	<g>
		<path fill="none" stroke="#D1D3D4" stroke-width="2" stroke-miterlimit="10" stroke-dasharray="9.9216,9.9216" d="
			M269.336,191.326c0,7.273-5.068,13.171-11.318,13.171H31.647c-6.251,0-11.318-5.897-11.318-13.171V39.501
			c0-7.274,5.067-13.17,11.318-13.17h226.37c6.25,0,11.318,5.896,11.318,13.17V191.326z"/>
	</g>
	<line fill="none" stroke="#FFFFFF" stroke-width="16" stroke-miterlimit="10" x1="246.09" y1="96.94" x2="399.532" y2="96.94"/>
	<circle fill="none" stroke="#D1D3D4" stroke-width="12" stroke-miterlimit="10" cx="78.95" cy="96.94" r="37.95"/>
	<circle fill="none" stroke="#D1D3D4" stroke-width="12" stroke-miterlimit="10" cx="208.141" cy="96.94" r="37.949"/>
	<line fill="none" stroke="#D1D3D4" stroke-width="12" stroke-miterlimit="10" x1="116.9" y1="96.94" x2="170.191" y2="96.94"/>
	<line fill="none" stroke="#D1D3D4" stroke-width="12" stroke-miterlimit="10" x1="246.09" y1="96.94" x2="388.532" y2="96.94"/>
	<line fill="none" stroke="#FFFFFF" stroke-width="16" stroke-miterlimit="10" x1="475.431" y1="96.94" x2="628.873" y2="96.94"/>
	<circle fill="none" stroke="#D1D3D4" stroke-width="12" stroke-miterlimit="10" cx="666.822" cy="96.94" r="37.95"/>
	<line fill="none" stroke="#D1D3D4" stroke-width="12" stroke-miterlimit="10" x1="486.431" y1="96.94" x2="628.873" y2="96.94"/>
	<g>
		<g>
			<path fill-rule="evenodd" clip-rule="evenodd" stroke="#FFFFFF" stroke-width="8" stroke-miterlimit="10" d="M541.518,88.851
				c-1.547,0.047-2.898,0.5-4.059,1.449c-1.505,1.229-2.384,2.826-2.399,4.762c-0.047,5.581-0.055,11.163-0.004,16.744
				c0.031,3.42,2.966,6.189,6.462,6.195c6.48,0.012,12.96,0.004,19.438,0.004c2.094,0,4.187,0,6.277,0.002
				c3.844,0.004,6.689-2.82,6.691-6.651c0.002-5.245,0.002-10.487,0-15.731c0-3.806-2.515-6.497-6.324-6.767
				c-0.032-0.002-0.063-0.018-0.159-0.043c0-0.196,0-0.41,0-0.623c0-2.934,0.002-5.868,0-8.801
				c-0.002-5.84-3.428-10.71-8.962-12.551c-5.135-1.707-10.729-0.008-14.13,4.261c-1.944,2.438-2.842,5.232-2.834,8.339
				c0.008,2.967,0.002,5.934,0.002,8.903C541.518,88.49,541.518,88.641,541.518,88.851z M560.964,88.823c-4.356,0-8.648,0-12.966,0
				c0-0.17,0-0.304,0-0.437c0-3.086-0.004-6.173,0.004-9.258c0-0.319,0.048-0.637,0.093-0.953c0.437-3.038,3.043-5.393,6.083-5.501
				c3.737-0.135,6.759,2.759,6.784,6.504c0.01,1.517,0.002,3.036,0.002,4.553C560.964,85.417,560.964,87.101,560.964,88.823z
				 M556.101,107.387c0,0.775,0.004,1.552,0,2.328c-0.006,1.076-0.663,1.809-1.615,1.811c-0.948,0.002-1.623-0.74-1.627-1.803
				c-0.004-1.553-0.014-3.104,0.01-4.654c0.006-0.381-0.113-0.607-0.417-0.833c-0.843-0.625-1.238-1.499-1.199-2.54
				c0.063-1.556,1.148-2.771,2.673-3.052c1.462-0.269,2.871,0.48,3.512,1.87c0.625,1.351,0.216,2.818-1.026,3.825
				c-0.165,0.132-0.286,0.406-0.296,0.621C556.082,105.768,556.101,106.577,556.101,107.387z"/>
		</g>
	</g>
	<g>
		<path d="M652.084,169.305c0,3.096-1.877,4.973-4.637,4.973c-2.802,0-4.44-2.115-4.44-4.805c0-2.83,1.808-4.944,4.595-4.944
			C650.501,164.528,652.084,166.699,652.084,169.305z M645.262,169.431c0,1.849,0.869,3.151,2.298,3.151
			c1.442,0,2.269-1.373,2.269-3.208c0-1.694-0.813-3.151-2.283-3.151C646.103,166.223,645.262,167.596,645.262,169.431z"/>
		<path d="M655.609,164.682v5.436c0,1.625,0.616,2.451,1.709,2.451c1.12,0,1.737-0.784,1.737-2.451v-5.436h2.129v5.295
			c0,2.914-1.471,4.301-3.937,4.301c-2.382,0-3.782-1.317-3.782-4.328v-5.268H655.609z"/>
		<path d="M664.848,166.475h-2.535v-1.793h7.256v1.793h-2.577v7.648h-2.144V166.475z"/>
		<path d="M670.7,164.808c0.658-0.111,1.582-0.195,2.885-0.195c1.317,0,2.256,0.252,2.887,0.756
			c0.602,0.477,1.008,1.261,1.008,2.186c0,0.924-0.309,1.709-0.868,2.241c-0.729,0.687-1.808,0.994-3.067,0.994
			c-0.281,0-0.533-0.014-0.729-0.042v3.376H670.7V164.808z M672.815,169.095c0.182,0.042,0.406,0.056,0.714,0.056
			c1.135,0,1.835-0.574,1.835-1.541c0-0.868-0.602-1.387-1.667-1.387c-0.435,0-0.728,0.042-0.882,0.084V169.095z"/>
		<path d="M680.962,164.682v5.436c0,1.625,0.616,2.451,1.709,2.451c1.12,0,1.737-0.784,1.737-2.451v-5.436h2.129v5.295
			c0,2.914-1.471,4.301-3.937,4.301c-2.382,0-3.782-1.317-3.782-4.328v-5.268H680.962z"/>
		<path d="M690.202,166.475h-2.535v-1.793h7.256v1.793h-2.577v7.648h-2.144V166.475z"/>
	</g>
	<g>
		<g>
			<path fill-rule="evenodd" clip-rule="evenodd" d="M541.518,88.851c-1.547,0.047-2.898,0.5-4.059,1.449
				c-1.505,1.229-2.384,2.826-2.399,4.762c-0.047,5.581-0.055,11.163-0.004,16.744c0.031,3.42,2.966,6.189,6.462,6.195
				c6.48,0.012,12.96,0.004,19.438,0.004c2.094,0,4.187,0,6.277,0.002c3.844,0.004,6.689-2.82,6.691-6.651
				c0.002-5.245,0.002-10.487,0-15.731c0-3.806-2.515-6.497-6.324-6.767c-0.032-0.002-0.063-0.018-0.159-0.043
				c0-0.196,0-0.41,0-0.623c0-2.934,0.002-5.868,0-8.801c-0.002-5.84-3.428-10.71-8.962-12.551
				c-5.135-1.707-10.729-0.008-14.13,4.261c-1.944,2.438-2.842,5.232-2.834,8.339c0.008,2.967,0.002,5.934,0.002,8.903
				C541.518,88.49,541.518,88.641,541.518,88.851z M560.964,88.823c-4.356,0-8.648,0-12.966,0c0-0.17,0-0.304,0-0.437
				c0-3.086-0.004-6.173,0.004-9.258c0-0.319,0.048-0.637,0.093-0.953c0.437-3.038,3.043-5.393,6.083-5.501
				c3.737-0.135,6.759,2.759,6.784,6.504c0.01,1.517,0.002,3.036,0.002,4.553C560.964,85.417,560.964,87.101,560.964,88.823z
				 M556.101,107.387c0,0.775,0.004,1.552,0,2.328c-0.006,1.076-0.663,1.809-1.615,1.811c-0.948,0.002-1.623-0.74-1.627-1.803
				c-0.004-1.553-0.014-3.104,0.01-4.654c0.006-0.381-0.113-0.607-0.417-0.833c-0.843-0.625-1.238-1.499-1.199-2.54
				c0.063-1.556,1.148-2.771,2.673-3.052c1.462-0.269,2.871,0.48,3.512,1.87c0.625,1.351,0.216,2.818-1.026,3.825
				c-0.165,0.132-0.286,0.406-0.296,0.621C556.082,105.768,556.101,106.577,556.101,107.387z"/>
		</g>
	</g>
	<circle fill="none" stroke="#D1D3D4" stroke-width="12" stroke-miterlimit="10" cx="437.481" cy="96.94" r="48.95"/>
</g>
<g id="Layer_5">
</g>
<g id="text">
	<g>
		<g>
			<path fill-rule="evenodd" clip-rule="evenodd" stroke="#FFFFFF" stroke-width="8" stroke-miterlimit="10" d="M312.177,88.851
				c-1.547,0.047-2.898,0.5-4.059,1.449c-1.505,1.229-2.384,2.826-2.399,4.762c-0.047,5.581-0.055,11.163-0.004,16.744
				c0.031,3.42,2.966,6.189,6.462,6.195c6.48,0.012,12.96,0.004,19.438,0.004c2.094,0,4.187,0,6.277,0.002
				c3.844,0.004,6.689-2.82,6.691-6.651c0.002-5.245,0.002-10.487,0-15.731c0-3.806-2.515-6.497-6.324-6.767
				c-0.032-0.002-0.063-0.018-0.159-0.043c0-0.196,0-0.41,0-0.623c0-2.934,0.002-5.868,0-8.801
				c-0.002-5.84-3.428-10.71-8.962-12.551c-5.135-1.707-10.729-0.008-14.13,4.261c-1.944,2.438-2.842,5.232-2.834,8.339
				c0.008,2.967,0.002,5.934,0.002,8.903C312.177,88.49,312.177,88.641,312.177,88.851z M331.624,88.823c-4.356,0-8.648,0-12.966,0
				c0-0.17,0-0.304,0-0.437c0-3.086-0.004-6.173,0.004-9.258c0-0.319,0.048-0.637,0.093-0.953c0.437-3.038,3.043-5.393,6.083-5.501
				c3.737-0.135,6.759,2.759,6.784,6.504c0.01,1.517,0.002,3.036,0.002,4.553C331.624,85.417,331.624,87.101,331.624,88.823z
				 M326.76,107.387c0,0.775,0.004,1.552,0,2.328c-0.006,1.076-0.663,1.809-1.615,1.811c-0.948,0.002-1.623-0.74-1.627-1.803
				c-0.004-1.553-0.014-3.104,0.01-4.654c0.006-0.381-0.113-0.607-0.417-0.833c-0.843-0.625-1.238-1.499-1.199-2.54
				c0.063-1.556,1.148-2.771,2.673-3.052c1.462-0.269,2.871,0.48,3.512,1.87c0.625,1.351,0.216,2.818-1.026,3.825
				c-0.165,0.132-0.286,0.406-0.296,0.621C326.741,105.768,326.76,106.577,326.76,107.387z"/>
		</g>
	</g>
	<g>
		<path d="M51.886,164.808c0.561-0.111,1.695-0.195,2.76-0.195c1.303,0,2.101,0.126,2.788,0.532c0.658,0.35,1.134,0.994,1.134,1.849
			c0,0.841-0.49,1.625-1.555,2.018v0.027c1.079,0.294,1.877,1.106,1.877,2.325c0,0.854-0.392,1.527-0.98,2.003
			c-0.687,0.547-1.835,0.854-3.712,0.854c-1.051,0-1.835-0.069-2.312-0.14V164.808z M54.001,168.422h0.701
			c1.121,0,1.723-0.462,1.723-1.162c0-0.715-0.546-1.093-1.513-1.093c-0.462,0-0.729,0.027-0.911,0.056V168.422z M54.001,172.61
			c0.21,0.028,0.462,0.028,0.827,0.028c0.966,0,1.821-0.364,1.821-1.359c0-0.952-0.854-1.33-1.919-1.33h-0.729V172.61z"/>
		<path d="M60.342,164.808c0.687-0.111,1.709-0.195,2.844-0.195c1.401,0,2.381,0.21,3.054,0.742c0.56,0.448,0.868,1.106,0.868,1.975
			c0,1.205-0.854,2.031-1.667,2.325v0.042c0.658,0.267,1.022,0.896,1.261,1.766c0.294,1.064,0.588,2.297,0.77,2.661h-2.185
			c-0.154-0.267-0.378-1.036-0.658-2.199c-0.252-1.177-0.659-1.499-1.527-1.513h-0.645v3.712h-2.115V164.808z M62.457,168.87h0.84
			c1.065,0,1.695-0.532,1.695-1.358c0-0.869-0.588-1.303-1.569-1.317c-0.519,0-0.813,0.042-0.967,0.07V168.87z"/>
		<path d="M77.23,169.305c0,3.096-1.877,4.973-4.637,4.973c-2.801,0-4.44-2.115-4.44-4.805c0-2.83,1.807-4.944,4.595-4.944
			C75.647,164.528,77.23,166.699,77.23,169.305z M70.409,169.431c0,1.849,0.868,3.151,2.297,3.151c1.443,0,2.27-1.373,2.27-3.208
			c0-1.694-0.813-3.151-2.283-3.151C71.249,166.223,70.409,167.596,70.409,169.431z"/>
		<path d="M80.054,174.123l-2.241-9.441h2.283l0.714,3.895c0.21,1.12,0.406,2.339,0.561,3.292h0.028
			c0.154-1.022,0.378-2.157,0.617-3.32l0.798-3.866h2.269l0.756,3.979c0.21,1.106,0.364,2.115,0.504,3.166h0.028
			c0.14-1.051,0.351-2.157,0.546-3.278l0.771-3.866h2.171l-2.438,9.441h-2.312l-0.798-4.063c-0.182-0.952-0.336-1.835-0.448-2.913
			h-0.028c-0.168,1.064-0.322,1.961-0.546,2.913l-0.896,4.063H80.054z"/>
		<path d="M90.917,171.924c0.574,0.294,1.457,0.588,2.367,0.588c0.98,0,1.499-0.406,1.499-1.022c0-0.588-0.448-0.924-1.583-1.33
			c-1.569-0.547-2.591-1.415-2.591-2.788c0-1.61,1.345-2.843,3.572-2.843c1.064,0,1.849,0.224,2.409,0.476l-0.476,1.723
			c-0.378-0.182-1.051-0.447-1.975-0.447s-1.373,0.42-1.373,0.91c0,0.603,0.532,0.868,1.75,1.33
			c1.667,0.617,2.452,1.485,2.452,2.816c0,1.582-1.219,2.927-3.81,2.927c-1.079,0-2.143-0.279-2.676-0.574L90.917,171.924z"/>
		<path d="M104.024,170.131h-3.474v2.241h3.88v1.751h-6.023v-9.441h5.827v1.751h-3.684v1.961h3.474V170.131z"/>
		<path d="M105.883,164.808c0.687-0.111,1.709-0.195,2.844-0.195c1.401,0,2.381,0.21,3.054,0.742
			c0.56,0.448,0.868,1.106,0.868,1.975c0,1.205-0.854,2.031-1.667,2.325v0.042c0.658,0.267,1.022,0.896,1.26,1.766
			c0.294,1.064,0.588,2.297,0.771,2.661h-2.185c-0.154-0.267-0.378-1.036-0.658-2.199c-0.252-1.177-0.659-1.499-1.527-1.513h-0.645
			v3.712h-2.115V164.808z M107.999,168.87h0.84c1.065,0,1.695-0.532,1.695-1.358c0-0.869-0.588-1.303-1.569-1.317
			c-0.519,0-0.813,0.042-0.967,0.07V168.87z"/>
		<path d="M58.642,181.481v5.436c0,1.625,0.616,2.451,1.709,2.451c1.121,0,1.737-0.784,1.737-2.451v-5.436h2.129v5.295
			c0,2.914-1.471,4.301-3.936,4.301c-2.381,0-3.782-1.317-3.782-4.328v-5.268H58.642z"/>
		<path d="M66.06,181.607c0.659-0.111,1.583-0.195,2.886-0.195c1.317,0,2.255,0.252,2.886,0.756
			c0.602,0.477,1.008,1.261,1.008,2.186c0,0.924-0.308,1.709-0.869,2.241c-0.728,0.687-1.807,0.994-3.067,0.994
			c-0.28,0-0.532-0.014-0.729-0.042v3.376H66.06V181.607z M68.175,185.895c0.182,0.042,0.406,0.056,0.714,0.056
			c1.135,0,1.835-0.574,1.835-1.541c0-0.868-0.602-1.387-1.667-1.387c-0.435,0-0.729,0.042-0.883,0.084V185.895z"/>
		<path d="M74.194,181.481h2.144v7.648h3.754v1.793h-5.897V181.481z"/>
		<path d="M89.459,186.104c0,3.096-1.877,4.973-4.637,4.973c-2.801,0-4.44-2.115-4.44-4.805c0-2.83,1.807-4.944,4.595-4.944
			C87.876,181.328,89.459,183.499,89.459,186.104z M82.637,186.23c0,1.849,0.868,3.151,2.297,3.151c1.443,0,2.27-1.372,2.27-3.208
			c0-1.694-0.813-3.151-2.283-3.151C83.478,183.022,82.637,184.396,82.637,186.23z"/>
		<path d="M92.829,188.5l-0.672,2.423h-2.213l2.885-9.441h2.802l2.927,9.441h-2.297l-0.729-2.423H92.829z M95.225,186.902
			l-0.588-2.003c-0.168-0.561-0.336-1.261-0.476-1.821h-0.028c-0.14,0.561-0.28,1.275-0.434,1.821l-0.561,2.003H95.225z"/>
		<path d="M99.814,181.607c0.785-0.126,1.807-0.195,2.886-0.195c1.793,0,2.956,0.322,3.866,1.008
			c0.98,0.729,1.597,1.892,1.597,3.559c0,1.807-0.658,3.054-1.569,3.824c-0.995,0.826-2.507,1.218-4.356,1.218
			c-1.106,0-1.891-0.069-2.423-0.14V181.607z M101.958,189.312c0.182,0.042,0.476,0.042,0.742,0.042
			c1.933,0.015,3.194-1.05,3.194-3.306c0.014-1.961-1.135-2.997-2.97-2.997c-0.476,0-0.785,0.042-0.966,0.084V189.312z"/>
	</g>
	<g>
		<path d="M187.839,164.808c0.687-0.111,1.709-0.195,2.844-0.195c1.401,0,2.381,0.21,3.054,0.742
			c0.56,0.448,0.868,1.106,0.868,1.975c0,1.205-0.854,2.031-1.667,2.325v0.042c0.658,0.267,1.022,0.896,1.26,1.766
			c0.294,1.064,0.588,2.297,0.771,2.661h-2.185c-0.154-0.267-0.378-1.036-0.658-2.199c-0.252-1.177-0.659-1.499-1.527-1.513h-0.645
			v3.712h-2.115V164.808z M189.954,168.87h0.84c1.065,0,1.695-0.532,1.695-1.358c0-0.869-0.588-1.303-1.569-1.317
			c-0.519,0-0.813,0.042-0.967,0.07V168.87z"/>
		<path d="M201.758,170.131h-3.474v2.241h3.88v1.751h-6.023v-9.441h5.827v1.751h-3.684v1.961h3.474V170.131z"/>
		<path d="M205.942,174.123l-3.026-9.441h2.339l1.148,3.992c0.322,1.121,0.617,2.199,0.841,3.376h0.042
			c0.238-1.135,0.532-2.255,0.854-3.334l1.205-4.034h2.269l-3.18,9.441H205.942z"/>
		<path d="M214.762,164.682v9.441h-2.144v-9.441H214.762z"/>
		<path d="M222.225,170.131h-3.474v2.241h3.88v1.751h-6.023v-9.441h5.827v1.751h-3.684v1.961h3.474V170.131z"/>
		<path d="M225.709,174.123l-2.241-9.441h2.283l0.714,3.895c0.21,1.12,0.406,2.339,0.561,3.292h0.028
			c0.154-1.022,0.378-2.157,0.617-3.32l0.798-3.866h2.269l0.756,3.979c0.21,1.106,0.364,2.115,0.504,3.166h0.028
			c0.14-1.051,0.351-2.157,0.546-3.278l0.771-3.866h2.171l-2.438,9.441h-2.312l-0.798-4.063c-0.182-0.952-0.336-1.835-0.448-2.913
			h-0.028c-0.168,1.064-0.322,1.961-0.546,2.913l-0.896,4.063H225.709z"/>
		<path d="M195.531,181.607c0.785-0.126,1.807-0.195,2.886-0.195c1.793,0,2.956,0.322,3.866,1.008
			c0.98,0.729,1.597,1.892,1.597,3.559c0,1.807-0.658,3.054-1.569,3.824c-0.995,0.826-2.507,1.218-4.356,1.218
			c-1.106,0-1.891-0.069-2.423-0.14V181.607z M197.675,189.312c0.182,0.042,0.476,0.042,0.742,0.042
			c1.933,0.015,3.194-1.05,3.194-3.306c0.014-1.961-1.135-2.997-2.97-2.997c-0.476,0-0.785,0.042-0.966,0.084V189.312z"/>
		<path d="M207.25,188.5l-0.672,2.423h-2.213l2.885-9.441h2.802l2.927,9.441h-2.297l-0.729-2.423H207.25z M209.646,186.902
			l-0.588-2.003c-0.168-0.561-0.336-1.261-0.476-1.821h-0.028c-0.14,0.561-0.28,1.275-0.434,1.821l-0.561,2.003H209.646z"/>
		<path d="M214.895,183.274h-2.536v-1.793h7.256v1.793h-2.577v7.648h-2.143V183.274z"/>
		<path d="M221.937,188.5l-0.672,2.423h-2.213l2.885-9.441h2.802l2.928,9.441h-2.297l-0.729-2.423H221.937z M224.332,186.902
			l-0.588-2.003c-0.168-0.561-0.336-1.261-0.476-1.821h-0.028c-0.14,0.561-0.28,1.275-0.434,1.821l-0.561,2.003H224.332z"/>
	</g>
	<g>
		<path d="M429.983,99.27c-0.071-1.944-0.144-4.297-0.144-6.648h-0.071c-0.504,2.063-1.177,4.368-1.801,6.265l-1.969,6.313h-2.855
			l-1.729-6.265c-0.527-1.896-1.08-4.2-1.464-6.313h-0.048c-0.096,2.184-0.168,4.68-0.288,6.696l-0.288,6.145h-3.385l1.033-16.178
			h4.871l1.585,5.4c0.504,1.873,1.008,3.889,1.368,5.785h0.072c0.455-1.872,1.008-4.009,1.535-5.809l1.729-5.377h4.776l0.888,16.178
			h-3.576L429.983,99.27z"/>
		<path d="M436.606,89.501c1.129-0.192,2.713-0.337,4.944-0.337c2.257,0,3.864,0.433,4.944,1.297
			c1.032,0.815,1.729,2.16,1.729,3.744s-0.528,2.928-1.488,3.84c-1.248,1.177-3.096,1.704-5.256,1.704
			c-0.48,0-0.912-0.023-1.248-0.071v5.784h-3.625V89.501z M440.231,96.845c0.312,0.072,0.695,0.097,1.224,0.097
			c1.944,0,3.144-0.984,3.144-2.641c0-1.488-1.031-2.376-2.855-2.376c-0.744,0-1.248,0.072-1.512,0.144V96.845z"/>
		<path d="M462.431,105.006c-0.673,0.336-2.185,0.696-4.152,0.696c-5.593,0-8.474-3.48-8.474-8.089c0-5.521,3.938-8.593,8.834-8.593
			c1.896,0,3.336,0.384,3.984,0.72l-0.744,2.904c-0.744-0.312-1.776-0.6-3.072-0.6c-2.904,0-5.161,1.752-5.161,5.353
			c0,3.24,1.921,5.28,5.185,5.28c1.104,0,2.328-0.24,3.049-0.528L462.431,105.006z"/>
	</g>
	<g>
		<path d="M285.499,171.924c0.574,0.294,1.457,0.588,2.367,0.588c0.98,0,1.499-0.406,1.499-1.022c0-0.588-0.448-0.924-1.583-1.33
			c-1.569-0.547-2.591-1.415-2.591-2.788c0-1.61,1.345-2.843,3.572-2.843c1.064,0,1.849,0.224,2.409,0.476l-0.476,1.723
			c-0.378-0.182-1.051-0.447-1.975-0.447s-1.373,0.42-1.373,0.91c0,0.603,0.532,0.868,1.75,1.33
			c1.667,0.617,2.452,1.485,2.452,2.816c0,1.582-1.219,2.927-3.81,2.927c-1.079,0-2.143-0.279-2.676-0.574L285.499,171.924z"/>
		<path d="M298.606,170.131h-3.474v2.241h3.88v1.751h-6.023v-9.441h5.827v1.751h-3.684v1.961h3.474V170.131z"/>
		<path d="M307.398,173.856c-0.393,0.196-1.275,0.406-2.423,0.406c-3.264,0-4.945-2.03-4.945-4.72c0-3.222,2.297-5.015,5.155-5.015
			c1.106,0,1.947,0.224,2.325,0.42l-0.434,1.694c-0.434-0.182-1.037-0.35-1.793-0.35c-1.695,0-3.012,1.022-3.012,3.123
			c0,1.892,1.121,3.082,3.026,3.082c0.644,0,1.358-0.14,1.779-0.308L307.398,173.856z"/>
		<path d="M310.924,164.682v5.436c0,1.625,0.616,2.451,1.709,2.451c1.121,0,1.737-0.784,1.737-2.451v-5.436h2.129v5.295
			c0,2.914-1.471,4.301-3.937,4.301c-2.381,0-3.782-1.317-3.782-4.328v-5.268H310.924z"/>
		<path d="M318.342,164.808c0.687-0.111,1.709-0.195,2.844-0.195c1.401,0,2.381,0.21,3.054,0.742
			c0.56,0.448,0.868,1.106,0.868,1.975c0,1.205-0.854,2.031-1.667,2.325v0.042c0.658,0.267,1.022,0.896,1.261,1.766
			c0.294,1.064,0.588,2.297,0.77,2.661h-2.185c-0.154-0.267-0.378-1.036-0.658-2.199c-0.252-1.177-0.659-1.499-1.527-1.513h-0.645
			v3.712h-2.115V164.808z M320.458,168.87h0.84c1.065,0,1.695-0.532,1.695-1.358c0-0.869-0.588-1.303-1.569-1.317
			c-0.519,0-0.813,0.042-0.967,0.07V168.87z"/>
		<path d="M332.261,170.131h-3.474v2.241h3.88v1.751h-6.023v-9.441h5.827v1.751h-3.684v1.961h3.474V170.131z"/>
		<path d="M339.147,171.7l-0.672,2.423h-2.213l2.885-9.441h2.802l2.927,9.441h-2.297l-0.729-2.423H339.147z M341.542,170.103
			l-0.588-2.003c-0.168-0.561-0.336-1.261-0.476-1.82h-0.028c-0.14,0.56-0.28,1.274-0.434,1.82l-0.561,2.003H341.542z"/>
		<path d="M346.132,174.123v-9.441h2.494l1.961,3.46c0.56,0.995,1.121,2.171,1.541,3.236h0.042c-0.14-1.247-0.182-2.521-0.182-3.937
			v-2.76h1.961v9.441h-2.241l-2.017-3.642c-0.56-1.009-1.177-2.228-1.639-3.334l-0.042,0.014c0.056,1.247,0.084,2.577,0.084,4.118
			v2.844H346.132z"/>
		<path d="M355.792,164.808c0.785-0.126,1.807-0.195,2.886-0.195c1.793,0,2.956,0.321,3.866,1.008
			c0.98,0.729,1.597,1.892,1.597,3.559c0,1.807-0.658,3.054-1.569,3.823c-0.995,0.827-2.507,1.219-4.356,1.219
			c-1.106,0-1.891-0.069-2.423-0.14V164.808z M357.935,172.512c0.182,0.043,0.476,0.043,0.742,0.043
			c1.933,0.014,3.194-1.051,3.194-3.307c0.014-1.961-1.135-2.997-2.97-2.997c-0.476,0-0.784,0.042-0.966,0.084V172.512z"/>
		<path d="M307.7,187.309c-0.042-1.135-0.084-2.507-0.084-3.88h-0.042c-0.294,1.205-0.687,2.55-1.05,3.656l-1.149,3.684h-1.667
			l-1.008-3.655c-0.308-1.107-0.63-2.452-0.854-3.685h-0.028c-0.056,1.274-0.098,2.731-0.168,3.908l-0.168,3.586h-1.975l0.603-9.441
			h2.843l0.925,3.152c0.294,1.092,0.588,2.269,0.798,3.376h0.042c0.266-1.093,0.588-2.34,0.896-3.391l1.008-3.138h2.788l0.519,9.441
			h-2.087L307.7,187.309z"/>
		<path d="M313.717,188.5l-0.672,2.423h-2.213l2.885-9.441h2.802l2.928,9.441h-2.297l-0.729-2.423H313.717z M316.112,186.902
			l-0.588-2.003c-0.168-0.561-0.336-1.261-0.476-1.821h-0.028c-0.14,0.561-0.28,1.275-0.434,1.821l-0.561,2.003H316.112z"/>
		<path d="M320.771,188.724c0.574,0.294,1.457,0.588,2.367,0.588c0.98,0,1.499-0.405,1.499-1.022c0-0.588-0.448-0.924-1.583-1.33
			c-1.569-0.547-2.591-1.415-2.591-2.788c0-1.61,1.345-2.843,3.572-2.843c1.064,0,1.849,0.224,2.409,0.476l-0.476,1.724
			c-0.378-0.183-1.051-0.449-1.975-0.449s-1.373,0.421-1.373,0.911c0,0.603,0.532,0.868,1.75,1.331
			c1.667,0.616,2.452,1.484,2.452,2.815c0,1.582-1.219,2.927-3.81,2.927c-1.079,0-2.143-0.279-2.676-0.574L320.771,188.724z"/>
		<path d="M328.261,181.481h2.115v4.175h0.042c0.21-0.364,0.435-0.7,0.645-1.037l2.143-3.138h2.62l-3.124,4.021l3.292,5.421H333.5
			l-2.311-4.076l-0.813,0.994v3.082h-2.115V181.481z"/>
		<path d="M342.474,186.931H339v2.241h3.88v1.751h-6.023v-9.441h5.827v1.751H339v1.961h3.474V186.931z"/>
		<path d="M344.333,181.607c0.785-0.126,1.807-0.195,2.886-0.195c1.793,0,2.956,0.322,3.866,1.008
			c0.98,0.729,1.597,1.892,1.597,3.559c0,1.807-0.658,3.054-1.569,3.824c-0.995,0.826-2.507,1.218-4.356,1.218
			c-1.106,0-1.891-0.069-2.423-0.14V181.607z M346.477,189.312c0.182,0.042,0.476,0.042,0.742,0.042
			c1.933,0.015,3.194-1.05,3.194-3.306c0.014-1.961-1.135-2.997-2.97-2.997c-0.476,0-0.785,0.042-0.966,0.084V189.312z"/>
		<path d="M295.888,200.074h-2.536v-1.793h7.256v1.793h-2.577v7.648h-2.143V200.074z"/>
		<path d="M301.738,198.407c0.687-0.111,1.709-0.195,2.844-0.195c1.401,0,2.381,0.21,3.054,0.742
			c0.56,0.448,0.868,1.106,0.868,1.975c0,1.205-0.854,2.031-1.667,2.325v0.042c0.658,0.267,1.022,0.896,1.26,1.766
			c0.294,1.064,0.588,2.297,0.771,2.661h-2.185c-0.154-0.267-0.378-1.036-0.658-2.199c-0.252-1.177-0.659-1.499-1.527-1.513h-0.645
			v3.712h-2.115V198.407z M303.854,202.47h0.84c1.065,0,1.695-0.532,1.695-1.358c0-0.869-0.588-1.303-1.569-1.317
			c-0.519,0-0.813,0.042-0.967,0.07V202.47z"/>
		<path d="M312.365,205.3l-0.672,2.423h-2.213l2.885-9.441h2.802l2.928,9.441h-2.297l-0.729-2.423H312.365z M314.761,203.702
			l-0.588-2.003c-0.168-0.561-0.336-1.261-0.476-1.82h-0.028c-0.14,0.56-0.28,1.274-0.434,1.82l-0.561,2.003H314.761z"/>
		<path d="M319.35,207.723v-9.441h2.494l1.961,3.46c0.56,0.995,1.121,2.171,1.541,3.236h0.042c-0.14-1.247-0.182-2.521-0.182-3.937
			v-2.76h1.961v9.441h-2.241l-2.017-3.642c-0.56-1.009-1.177-2.228-1.639-3.334l-0.042,0.014c0.056,1.247,0.084,2.577,0.084,4.118
			v2.844H319.35z"/>
		<path d="M329.08,205.523c0.574,0.294,1.457,0.588,2.367,0.588c0.98,0,1.499-0.406,1.499-1.022c0-0.588-0.448-0.924-1.583-1.33
			c-1.569-0.547-2.591-1.415-2.591-2.788c0-1.61,1.345-2.843,3.572-2.843c1.064,0,1.849,0.224,2.409,0.476l-0.476,1.723
			c-0.378-0.182-1.051-0.447-1.975-0.447s-1.373,0.42-1.373,0.91c0,0.603,0.532,0.868,1.75,1.33
			c1.667,0.617,2.452,1.485,2.452,2.816c0,1.582-1.219,2.927-3.81,2.927c-1.079,0-2.143-0.279-2.676-0.574L329.08,205.523z"/>
		<path d="M336.569,198.281h5.771v1.751h-3.628v2.157h3.39v1.737h-3.39v3.796h-2.144V198.281z"/>
		<path d="M349.564,203.73h-3.474v2.241h3.88v1.751h-6.023v-9.441h5.827v1.751h-3.684v1.961h3.474V203.73z"/>
		<path d="M351.423,198.407c0.687-0.111,1.709-0.195,2.844-0.195c1.401,0,2.381,0.21,3.054,0.742
			c0.56,0.448,0.868,1.106,0.868,1.975c0,1.205-0.854,2.031-1.667,2.325v0.042c0.658,0.267,1.022,0.896,1.261,1.766
			c0.294,1.064,0.588,2.297,0.77,2.661h-2.185c-0.154-0.267-0.378-1.036-0.658-2.199c-0.252-1.177-0.659-1.499-1.527-1.513h-0.645
			v3.712h-2.115V198.407z M353.539,202.47h0.84c1.065,0,1.695-0.532,1.695-1.358c0-0.869-0.588-1.303-1.569-1.317
			c-0.519,0-0.813,0.042-0.967,0.07V202.47z"/>
	</g>
	<g>
		<path d="M531.123,171.924c0.574,0.294,1.456,0.588,2.367,0.588c0.98,0,1.499-0.406,1.499-1.022c0-0.588-0.448-0.924-1.583-1.33
			c-1.569-0.547-2.591-1.415-2.591-2.788c0-1.61,1.344-2.843,3.571-2.843c1.064,0,1.849,0.224,2.409,0.476l-0.477,1.723
			c-0.378-0.182-1.051-0.447-1.975-0.447s-1.373,0.42-1.373,0.91c0,0.603,0.533,0.868,1.752,1.33
			c1.666,0.617,2.451,1.485,2.451,2.816c0,1.582-1.219,2.927-3.811,2.927c-1.078,0-2.143-0.279-2.676-0.574L531.123,171.924z"/>
		<path d="M544.229,170.131h-3.473v2.241h3.879v1.751h-6.023v-9.441h5.828v1.751h-3.684v1.961h3.473V170.131z"/>
		<path d="M553.022,173.856c-0.393,0.196-1.275,0.406-2.424,0.406c-3.264,0-4.944-2.03-4.944-4.72c0-3.222,2.298-5.015,5.155-5.015
			c1.105,0,1.947,0.224,2.324,0.42l-0.434,1.694c-0.434-0.182-1.037-0.35-1.793-0.35c-1.695,0-3.012,1.022-3.012,3.123
			c0,1.892,1.121,3.082,3.025,3.082c0.645,0,1.359-0.14,1.779-0.308L553.022,173.856z"/>
		<path d="M556.547,164.682v5.436c0,1.625,0.616,2.451,1.709,2.451c1.121,0,1.736-0.784,1.736-2.451v-5.436h2.129v5.295
			c0,2.914-1.471,4.301-3.936,4.301c-2.381,0-3.781-1.317-3.781-4.328v-5.268H556.547z"/>
		<path d="M563.965,164.808c0.688-0.111,1.709-0.195,2.844-0.195c1.401,0,2.382,0.21,3.055,0.742
			c0.56,0.448,0.867,1.106,0.867,1.975c0,1.205-0.854,2.031-1.666,2.325v0.042c0.658,0.267,1.022,0.896,1.26,1.766
			c0.295,1.064,0.589,2.297,0.771,2.661h-2.186c-0.154-0.267-0.379-1.036-0.658-2.199c-0.252-1.177-0.658-1.499-1.527-1.513h-0.645
			v3.712h-2.115V164.808z M566.081,168.87h0.841c1.065,0,1.695-0.532,1.695-1.358c0-0.869-0.589-1.303-1.569-1.317
			c-0.518,0-0.813,0.042-0.967,0.07V168.87z"/>
		<path d="M577.885,170.131h-3.475v2.241h3.881v1.751h-6.023v-9.441h5.826v1.751h-3.684v1.961h3.475V170.131z"/>
		<path d="M524.389,183.274h-2.535v-1.793h7.256v1.793h-2.577v7.648h-2.144V183.274z"/>
		<path d="M530.241,181.607c0.686-0.111,1.709-0.195,2.844-0.195c1.4,0,2.381,0.21,3.053,0.742c0.561,0.448,0.869,1.106,0.869,1.975
			c0,1.205-0.855,2.031-1.667,2.325v0.042c0.658,0.267,1.022,0.896,1.261,1.766c0.294,1.064,0.588,2.297,0.77,2.661h-2.185
			c-0.153-0.267-0.378-1.036-0.658-2.199c-0.253-1.177-0.659-1.499-1.526-1.513h-0.645v3.712h-2.115V181.607z M532.356,185.67h0.84
			c1.064,0,1.695-0.532,1.695-1.358c0-0.869-0.588-1.303-1.568-1.317c-0.52,0-0.813,0.042-0.967,0.07V185.67z"/>
		<path d="M540.868,188.5l-0.673,2.423h-2.213l2.886-9.441h2.801l2.928,9.441h-2.297l-0.729-2.423H540.868z M543.262,186.902
			l-0.588-2.003c-0.168-0.561-0.336-1.261-0.477-1.821h-0.027c-0.141,0.561-0.281,1.275-0.435,1.821l-0.561,2.003H543.262z"/>
		<path d="M547.852,190.923v-9.441h2.493l1.961,3.46c0.56,0.995,1.12,2.172,1.541,3.236h0.042c-0.141-1.247-0.182-2.521-0.182-3.937
			v-2.76h1.961v9.441h-2.242l-2.017-3.642c-0.56-1.009-1.177-2.228-1.639-3.334l-0.042,0.014c0.056,1.247,0.084,2.577,0.084,4.118
			v2.844H547.852z"/>
		<path d="M557.583,188.724c0.574,0.294,1.456,0.588,2.367,0.588c0.98,0,1.498-0.405,1.498-1.022c0-0.588-0.447-0.924-1.582-1.33
			c-1.569-0.547-2.592-1.415-2.592-2.788c0-1.61,1.345-2.843,3.572-2.843c1.064,0,1.849,0.224,2.408,0.476l-0.476,1.724
			c-0.378-0.183-1.051-0.449-1.976-0.449c-0.924,0-1.372,0.421-1.372,0.911c0,0.603,0.532,0.868,1.751,1.331
			c1.666,0.616,2.451,1.484,2.451,2.815c0,1.582-1.219,2.927-3.811,2.927c-1.078,0-2.143-0.279-2.676-0.574L557.583,188.724z"/>
		<path d="M565.071,181.481h5.771v1.751h-3.627v2.157h3.389v1.737h-3.389v3.796h-2.145V181.481z"/>
		<path d="M578.067,186.931h-3.475v2.241h3.881v1.751h-6.023v-9.441h5.826v1.751h-3.684v1.961h3.475V186.931z"/>
		<path d="M579.925,181.607c0.687-0.111,1.709-0.195,2.844-0.195c1.401,0,2.382,0.21,3.054,0.742
			c0.561,0.448,0.868,1.106,0.868,1.975c0,1.205-0.854,2.031-1.667,2.325v0.042c0.658,0.267,1.023,0.896,1.262,1.766
			c0.293,1.064,0.588,2.297,0.77,2.661h-2.186c-0.154-0.267-0.377-1.036-0.658-2.199c-0.252-1.177-0.658-1.499-1.526-1.513h-0.645
			v3.712h-2.115V181.607z M582.041,185.67h0.841c1.064,0,1.695-0.532,1.695-1.358c0-0.869-0.589-1.303-1.569-1.317
			c-0.519,0-0.813,0.042-0.967,0.07V185.67z"/>
	</g>
	<g>
		<path d="M398.581,173.695c-0.393,0.196-1.275,0.406-2.423,0.406c-3.264,0-4.945-2.03-4.945-4.72c0-3.222,2.297-5.015,5.155-5.015
			c1.106,0,1.947,0.224,2.325,0.42l-0.434,1.694c-0.434-0.182-1.037-0.35-1.793-0.35c-1.695,0-3.012,1.022-3.012,3.123
			c0,1.892,1.121,3.082,3.026,3.082c0.644,0,1.358-0.14,1.779-0.308L398.581,173.695z"/>
		<path d="M408.2,169.144c0,3.096-1.877,4.973-4.637,4.973c-2.802,0-4.44-2.115-4.44-4.805c0-2.83,1.807-4.944,4.595-4.944
			C406.617,164.367,408.2,166.538,408.2,169.144z M401.378,169.27c0,1.849,0.868,3.151,2.297,3.151c1.442,0,2.269-1.373,2.269-3.208
			c0-1.694-0.813-3.151-2.283-3.151C402.218,166.062,401.378,167.435,401.378,169.27z"/>
		<path d="M417.579,170.348c-0.041-1.135-0.084-2.507-0.084-3.88h-0.041c-0.295,1.205-0.688,2.55-1.051,3.656l-1.148,3.684h-1.668
			l-1.008-3.656c-0.309-1.106-0.631-2.451-0.854-3.684h-0.028c-0.056,1.274-0.098,2.731-0.168,3.908l-0.168,3.586h-1.975
			l0.603-9.441h2.843l0.925,3.152c0.294,1.092,0.588,2.269,0.798,3.375h0.043c0.266-1.092,0.588-2.339,0.896-3.39l1.008-3.138h2.787
			l0.52,9.441h-2.088L417.579,170.348z"/>
		<path d="M421.438,164.646c0.659-0.111,1.584-0.195,2.887-0.195c1.316,0,2.255,0.252,2.885,0.756
			c0.603,0.477,1.009,1.261,1.009,2.186c0,0.924-0.308,1.709-0.868,2.241c-0.729,0.687-1.807,0.994-3.068,0.994
			c-0.279,0-0.531-0.014-0.729-0.042v3.376h-2.115V164.646z M423.553,168.934c0.183,0.042,0.406,0.056,0.715,0.056
			c1.135,0,1.835-0.574,1.835-1.541c0-0.868-0.603-1.387-1.667-1.387c-0.434,0-0.729,0.042-0.883,0.084V168.934z"/>
		<path d="M431.702,164.521v5.436c0,1.625,0.617,2.451,1.709,2.451c1.121,0,1.737-0.784,1.737-2.451v-5.436h2.129v5.295
			c0,2.914-1.471,4.301-3.937,4.301c-2.381,0-3.781-1.317-3.781-4.328v-5.268H431.702z"/>
		<path d="M440.942,166.313h-2.535v-1.793h7.256v1.793h-2.578v7.648h-2.143V166.313z"/>
		<path d="M447.983,171.539l-0.672,2.423h-2.213l2.885-9.441h2.803l2.927,9.441h-2.297l-0.729-2.423H447.983z M450.379,169.941
			l-0.589-2.003c-0.168-0.561-0.336-1.261-0.476-1.82h-0.029c-0.14,0.56-0.279,1.274-0.434,1.82l-0.561,2.003H450.379z"/>
		<path d="M455.627,166.313h-2.535v-1.793h7.256v1.793h-2.578v7.648h-2.143V166.313z"/>
		<path d="M463.622,164.521v9.441h-2.144v-9.441H463.622z"/>
		<path d="M474.112,169.144c0,3.096-1.878,4.973-4.637,4.973c-2.802,0-4.441-2.115-4.441-4.805c0-2.83,1.808-4.944,4.596-4.944
			C472.528,164.367,474.112,166.538,474.112,169.144z M467.29,169.27c0,1.849,0.868,3.151,2.297,3.151
			c1.443,0,2.27-1.373,2.27-3.208c0-1.694-0.813-3.151-2.283-3.151C468.129,166.062,467.29,167.435,467.29,169.27z"/>
		<path d="M475.506,173.962v-9.441H478l1.961,3.46c0.561,0.995,1.12,2.171,1.541,3.236h0.042c-0.141-1.247-0.182-2.521-0.182-3.937
			v-2.76h1.961v9.441h-2.242l-2.017-3.642c-0.561-1.009-1.177-2.228-1.639-3.334L477.383,167c0.056,1.247,0.084,2.577,0.084,4.118
			v2.844H475.506z"/>
		<path d="M410.729,188.563c0.574,0.294,1.457,0.588,2.367,0.588c0.98,0,1.499-0.405,1.499-1.022c0-0.588-0.448-0.924-1.583-1.33
			c-1.568-0.547-2.591-1.415-2.591-2.788c0-1.61,1.345-2.843,3.572-2.843c1.064,0,1.85,0.224,2.409,0.476l-0.476,1.724
			c-0.379-0.183-1.051-0.449-1.976-0.449s-1.372,0.421-1.372,0.911c0,0.603,0.531,0.868,1.75,1.331
			c1.667,0.616,2.451,1.484,2.451,2.815c0,1.582-1.219,2.927-3.81,2.927c-1.079,0-2.144-0.279-2.676-0.574L410.729,188.563z"/>
		<path d="M423.836,186.77h-3.475v2.241h3.881v1.751h-6.023v-9.441h5.826v1.751h-3.684v1.961h3.475V186.77z"/>
		<path d="M425.694,181.446c0.688-0.111,1.709-0.195,2.844-0.195c1.401,0,2.382,0.21,3.055,0.742
			c0.56,0.448,0.867,1.106,0.867,1.975c0,1.205-0.854,2.031-1.666,2.325v0.042c0.658,0.267,1.022,0.896,1.261,1.766
			c0.294,1.064,0.588,2.297,0.771,2.661h-2.186c-0.154-0.267-0.378-1.036-0.658-2.199c-0.252-1.177-0.658-1.499-1.527-1.513h-0.645
			v3.712h-2.115V181.446z M427.809,185.509h0.841c1.065,0,1.695-0.532,1.695-1.358c0-0.869-0.589-1.303-1.569-1.317
			c-0.518,0-0.813,0.042-0.967,0.07V185.509z"/>
		<path d="M436.14,190.762l-3.026-9.441h2.34l1.148,3.992c0.322,1.121,0.617,2.199,0.841,3.376h0.042
			c0.238-1.135,0.532-2.255,0.854-3.334l1.204-4.034h2.27l-3.18,9.441H436.14z"/>
		<path d="M448.434,186.77h-3.475v2.241h3.881v1.751h-6.023v-9.441h5.826v1.751h-3.684v1.961h3.475V186.77z"/>
		<path d="M450.292,181.446c0.688-0.111,1.709-0.195,2.844-0.195c1.401,0,2.382,0.21,3.055,0.742
			c0.56,0.448,0.867,1.106,0.867,1.975c0,1.205-0.854,2.031-1.666,2.325v0.042c0.658,0.267,1.022,0.896,1.261,1.766
			c0.294,1.064,0.588,2.297,0.771,2.661h-2.186c-0.154-0.267-0.378-1.036-0.658-2.199c-0.252-1.177-0.658-1.499-1.527-1.513h-0.645
			v3.712h-2.115V181.446z M452.407,185.509h0.841c1.065,0,1.695-0.532,1.695-1.358c0-0.869-0.589-1.303-1.569-1.317
			c-0.518,0-0.813,0.042-0.967,0.07V185.509z"/>
		<path d="M458.665,188.563c0.574,0.294,1.456,0.588,2.367,0.588c0.98,0,1.498-0.405,1.498-1.022c0-0.588-0.447-0.924-1.582-1.33
			c-1.569-0.547-2.592-1.415-2.592-2.788c0-1.61,1.345-2.843,3.572-2.843c1.064,0,1.849,0.224,2.408,0.476l-0.476,1.724
			c-0.378-0.183-1.051-0.449-1.976-0.449c-0.924,0-1.372,0.421-1.372,0.911c0,0.603,0.532,0.868,1.751,1.331
			c1.666,0.616,2.451,1.484,2.451,2.815c0,1.582-1.219,2.927-3.811,2.927c-1.078,0-2.143-0.279-2.675-0.574L458.665,188.563z"/>
	</g>
	<g>
		<g>
			<path fill-rule="evenodd" clip-rule="evenodd" d="M312.177,88.851c-1.547,0.047-2.898,0.5-4.059,1.449
				c-1.505,1.229-2.384,2.826-2.399,4.762c-0.047,5.581-0.055,11.163-0.004,16.744c0.031,3.42,2.966,6.189,6.462,6.195
				c6.48,0.012,12.96,0.004,19.438,0.004c2.094,0,4.187,0,6.277,0.002c3.844,0.004,6.689-2.82,6.691-6.651
				c0.002-5.245,0.002-10.487,0-15.731c0-3.806-2.515-6.497-6.324-6.767c-0.032-0.002-0.063-0.018-0.159-0.043
				c0-0.196,0-0.41,0-0.623c0-2.934,0.002-5.868,0-8.801c-0.002-5.84-3.428-10.71-8.962-12.551
				c-5.135-1.707-10.729-0.008-14.13,4.261c-1.944,2.438-2.842,5.232-2.834,8.339c0.008,2.967,0.002,5.934,0.002,8.903
				C312.177,88.49,312.177,88.641,312.177,88.851z M331.624,88.823c-4.356,0-8.648,0-12.966,0c0-0.17,0-0.304,0-0.437
				c0-3.086-0.004-6.173,0.004-9.258c0-0.319,0.048-0.637,0.093-0.953c0.437-3.038,3.043-5.393,6.083-5.501
				c3.737-0.135,6.759,2.759,6.784,6.504c0.01,1.517,0.002,3.036,0.002,4.553C331.624,85.417,331.624,87.101,331.624,88.823z
				 M326.76,107.387c0,0.775,0.004,1.552,0,2.328c-0.006,1.076-0.663,1.809-1.615,1.811c-0.948,0.002-1.623-0.74-1.627-1.803
				c-0.004-1.553-0.014-3.104,0.01-4.654c0.006-0.381-0.113-0.607-0.417-0.833c-0.843-0.625-1.238-1.499-1.199-2.54
				c0.063-1.556,1.148-2.771,2.673-3.052c1.462-0.269,2.871,0.48,3.512,1.87c0.625,1.351,0.216,2.818-1.026,3.825
				c-0.165,0.132-0.286,0.406-0.296,0.621C326.741,105.768,326.76,106.577,326.76,107.387z"/>
		</g>
	</g>
	<g>
		<path d="M102.037,18.462v-3.866l-2.984-5.575h2.438l0.966,2.27c0.294,0.687,0.49,1.19,0.729,1.807h0.028
			c0.21-0.588,0.435-1.135,0.714-1.807l0.953-2.27h2.396l-3.11,5.505v3.937H102.037z"/>
		<path d="M116.278,13.644c0,3.096-1.877,4.973-4.637,4.973c-2.801,0-4.44-2.115-4.44-4.805c0-2.83,1.807-4.944,4.595-4.944
			C114.695,8.867,116.278,11.038,116.278,13.644z M109.457,13.77c0,1.849,0.868,3.151,2.297,3.151c1.443,0,2.27-1.373,2.27-3.208
			c0-1.694-0.813-3.151-2.283-3.151C110.297,10.562,109.457,11.935,109.457,13.77z"/>
		<path d="M119.802,9.021v5.436c0,1.625,0.616,2.451,1.709,2.451c1.121,0,1.737-0.784,1.737-2.451V9.021h2.129v5.295
			c0,2.914-1.471,4.301-3.937,4.301c-2.381,0-3.782-1.317-3.782-4.328V9.021H119.802z"/>
		<path d="M127.221,9.146c0.687-0.111,1.709-0.195,2.844-0.195c1.401,0,2.381,0.21,3.054,0.742c0.56,0.448,0.868,1.106,0.868,1.975
			c0,1.205-0.854,2.031-1.667,2.325v0.042c0.658,0.267,1.022,0.896,1.261,1.766c0.294,1.064,0.588,2.297,0.77,2.661h-2.185
			c-0.154-0.267-0.378-1.036-0.658-2.199c-0.252-1.177-0.659-1.499-1.527-1.513h-0.645v3.712h-2.115V9.146z M129.336,13.209h0.84
			c1.065,0,1.695-0.532,1.695-1.358c0-0.869-0.588-1.303-1.569-1.317c-0.519,0-0.813,0.042-0.967,0.07V13.209z"/>
		<path d="M146.335,14.848c-0.042-1.135-0.084-2.507-0.084-3.88h-0.042c-0.294,1.205-0.687,2.55-1.05,3.656l-1.149,3.684h-1.667
			l-1.008-3.656c-0.308-1.106-0.63-2.451-0.854-3.684h-0.028c-0.056,1.274-0.098,2.731-0.168,3.908l-0.168,3.586h-1.975l0.603-9.441
			h2.843l0.925,3.152c0.294,1.092,0.588,2.269,0.798,3.375h0.042c0.266-1.092,0.588-2.339,0.896-3.39l1.008-3.138h2.788l0.519,9.441
			h-2.087L146.335,14.848z"/>
		<path d="M152.352,16.039l-0.672,2.423h-2.213l2.885-9.441h2.802l2.928,9.441h-2.297l-0.729-2.423H152.352z M154.748,14.441
			l-0.588-2.003c-0.168-0.561-0.336-1.261-0.476-1.82h-0.028c-0.14,0.56-0.28,1.274-0.434,1.82l-0.561,2.003H154.748z"/>
		<path d="M165.921,18.195c-0.393,0.196-1.275,0.406-2.423,0.406c-3.264,0-4.945-2.03-4.945-4.72c0-3.222,2.297-5.015,5.155-5.015
			c1.106,0,1.947,0.224,2.325,0.42l-0.434,1.694c-0.434-0.182-1.037-0.35-1.793-0.35c-1.695,0-3.012,1.022-3.012,3.123
			c0,1.892,1.121,3.082,3.026,3.082c0.644,0,1.358-0.14,1.779-0.308L165.921,18.195z"/>
		<path d="M169.46,9.021v3.628h3.516V9.021h2.129v9.441h-2.129v-3.95h-3.516v3.95h-2.144V9.021H169.46z"/>
		<path d="M179.106,9.021v9.441h-2.144V9.021H179.106z"/>
		<path d="M180.952,18.462V9.021h2.494l1.961,3.46c0.561,0.995,1.121,2.171,1.541,3.236h0.042c-0.14-1.247-0.182-2.521-0.182-3.937
			v-2.76h1.961v9.441h-2.241l-2.017-3.642c-0.561-1.009-1.177-2.228-1.639-3.334L182.83,11.5c0.056,1.247,0.084,2.577,0.084,4.118
			v2.844H180.952z"/>
		<path d="M196.229,14.47h-3.474v2.241h3.88v1.751h-6.023V9.021h5.827v1.751h-3.684v1.961h3.474V14.47z"/>
	</g>
</g>
<g id="Layer_3">
</g>
</svg>
