<?xml version="1.0" encoding="utf-8"?>
<!-- Generator: Adobe Illustrator 16.0.0, SVG Export Plug-In . SVG Version: 6.00 Build 0)  -->
<!DOCTYPE svg PUBLIC "-//W3C//DTD SVG 1.1//EN" "http://www.w3.org/Graphics/SVG/1.1/DTD/svg11.dtd">
<svg version="1.1" id="Layer_1" xmlns="http://www.w3.org/2000/svg" xmlns:xlink="http://www.w3.org/1999/xlink" x="0px" y="0px"
	 width="712.5px" height="201.5px" viewBox="0 0 712.5 201.5" enable-background="new 0 0 712.5 201.5" xml:space="preserve">
<g id="Layer_2" display="none">
	
		<image display="inline" overflow="visible" enable-background="new    " width="1500" height="1226" xlink:href="C55CF736.jpeg"  transform="matrix(1 0 0 0.9992 -345.5 -523.6104)">
	</image>
</g>
<g id="Layer_4">
	<path fill="none" stroke="#D1D3D4" stroke-width="2" stroke-miterlimit="10" stroke-dasharray="10.044,10.044" d="M271.666,144.859
		c0,5.601-5.373,10.141-12,10.141h-240c-6.627,0-12-4.54-12-10.141V27.973c0-5.6,5.373-10.14,12-10.14h240c6.627,0,12,4.54,12,10.14
		V144.859z"/>
	<line fill="none" stroke="#FFFFFF" stroke-width="16" stroke-miterlimit="10" x1="240.924" y1="88.443" x2="394.365" y2="88.443"/>
	<g>
		<path fill="#D1D3D4" d="M73.784,132.393c-24.234,0-43.95-19.716-43.95-43.949c0-24.234,19.716-43.949,43.95-43.949
			c24.234,0,43.95,19.715,43.95,43.949C117.733,112.677,98.018,132.393,73.784,132.393z M73.784,56.494
			c-17.617,0-31.95,14.333-31.95,31.949c0,17.618,14.333,31.95,31.95,31.95c17.617,0,31.95-14.332,31.95-31.95
			C105.733,70.827,91.401,56.494,73.784,56.494z"/>
	</g>
	<g>
		<path fill="#D1D3D4" d="M202.975,132.393c-24.234,0-43.95-19.716-43.95-43.949c0-24.234,19.716-43.949,43.95-43.949
			s43.949,19.715,43.949,43.949C246.924,112.677,227.208,132.393,202.975,132.393z M202.975,56.494
			c-17.617,0-31.95,14.333-31.95,31.949c0,17.618,14.333,31.95,31.95,31.95c17.617,0,31.949-14.332,31.949-31.95
			C234.924,70.827,220.591,56.494,202.975,56.494z"/>
	</g>
	<line fill="none" stroke="#D1D3D4" stroke-width="12" stroke-miterlimit="10" x1="111.733" y1="88.443" x2="165.025" y2="88.443"/>
	<g>
		<rect x="240.924" y="82.443" fill="#D1D3D4" width="142.441" height="12"/>
	</g>
	<line fill="none" stroke="#FFFFFF" stroke-width="16" stroke-miterlimit="10" x1="470.265" y1="88.443" x2="623.706" y2="88.443"/>
	<g>
		<path fill="#D1D3D4" d="M661.656,132.393c-24.234,0-43.95-19.716-43.95-43.949c0-24.234,19.716-43.949,43.95-43.949
			c24.232,0,43.949,19.715,43.949,43.949C705.605,112.677,685.89,132.393,661.656,132.393z M661.656,56.494
			c-17.617,0-31.95,14.333-31.95,31.949c0,17.618,14.333,31.95,31.95,31.95s31.949-14.332,31.949-31.95
			C693.605,70.827,679.273,56.494,661.656,56.494z"/>
	</g>
	<g>
		<rect x="481.265" y="82.443" fill="#D1D3D4" width="142.441" height="12"/>
	</g>
	<g>
		<path fill="#414042" d="M644.918,171.146c0,3.096-1.877,4.973-4.637,4.973c-2.803,0-4.44-2.115-4.44-4.805
			c0-2.83,1.809-4.944,4.595-4.944C643.335,166.37,644.918,168.541,644.918,171.146z M638.096,171.271
			c0,1.85,0.869,3.151,2.298,3.151c1.442,0,2.27-1.373,2.27-3.208c0-1.693-0.813-3.15-2.283-3.15
			C638.938,168.064,638.096,169.438,638.096,171.271z"/>
		<path fill="#414042" d="M648.442,166.523v5.436c0,1.625,0.615,2.451,1.709,2.451c1.12,0,1.736-0.784,1.736-2.451v-5.436h2.129
			v5.295c0,2.914-1.471,4.301-3.937,4.301c-2.382,0-3.782-1.317-3.782-4.328v-5.268H648.442L648.442,166.523z"/>
		<path fill="#414042" d="M657.682,168.316h-2.534v-1.793h7.256v1.793h-2.577v7.647h-2.145V168.316z"/>
		<path fill="#414042" d="M663.533,166.648c0.658-0.11,1.582-0.194,2.885-0.194c1.317,0,2.256,0.252,2.887,0.756
			c0.603,0.478,1.009,1.261,1.009,2.187c0,0.924-0.31,1.709-0.868,2.24c-0.729,0.688-1.809,0.994-3.067,0.994
			c-0.281,0-0.533-0.014-0.729-0.042v3.376h-2.115L663.533,166.648L663.533,166.648z M665.648,170.938
			c0.182,0.041,0.405,0.056,0.714,0.056c1.135,0,1.835-0.574,1.835-1.541c0-0.868-0.603-1.388-1.667-1.388
			c-0.436,0-0.729,0.043-0.882,0.084V170.938z"/>
		<path fill="#414042" d="M673.796,166.523v5.436c0,1.625,0.616,2.451,1.709,2.451c1.12,0,1.737-0.784,1.737-2.451v-5.436h2.129
			v5.295c0,2.914-1.471,4.301-3.938,4.301c-2.382,0-3.781-1.317-3.781-4.328v-5.268H673.796L673.796,166.523z"/>
		<path fill="#414042" d="M683.035,168.316H680.5v-1.793h7.256v1.793h-2.577v7.647h-2.144V168.316z"/>
	</g>
	<g>
		<path fill="#D1D3D4" d="M432.315,143.393c-30.3,0-54.95-24.649-54.95-54.949c0-30.299,24.65-54.949,54.95-54.949
			c30.299,0,54.948,24.65,54.948,54.949C487.265,118.742,462.614,143.393,432.315,143.393z M432.315,45.494
			c-23.684,0-42.95,19.267-42.95,42.949c0,23.683,19.268,42.95,42.95,42.95c23.682,0,42.948-19.268,42.948-42.95
			C475.265,64.761,455.998,45.494,432.315,45.494z"/>
	</g>
</g>
<g id="Layer_5" display="none">
	
		<circle display="inline" fill="none" stroke="#39B54A" stroke-width="7" stroke-miterlimit="10" cx="73.784" cy="88.443" r="37.95"/>
</g>
<g id="text">
	<text transform="matrix(1 0 0 1 93.2354 22.9648)" font-family="'MyriadPro-Bold'" font-size="14">YOUR MACHINE</text>
	
		<text transform="matrix(1 0 0 1 93.2354 22.9648)" fill="none" stroke="#FFFFFF" stroke-width="7" stroke-miterlimit="10" font-family="'MyriadPro-Bold'" font-size="14">YOUR MACHINE</text>
	<g>
		<path fill="#414042" d="M43.558,166.648c0.561-0.11,1.695-0.194,2.76-0.194c1.303,0,2.101,0.126,2.788,0.532
			c0.658,0.35,1.134,0.994,1.134,1.849c0,0.841-0.49,1.625-1.555,2.019v0.026c1.079,0.294,1.877,1.106,1.877,2.325
			c0,0.854-0.392,1.527-0.98,2.003c-0.687,0.547-1.835,0.854-3.712,0.854c-1.051,0-1.835-0.069-2.312-0.141V166.648z
			 M45.673,170.264h0.701c1.121,0,1.723-0.462,1.723-1.162c0-0.715-0.546-1.093-1.513-1.093c-0.462,0-0.729,0.027-0.911,0.056
			V170.264z M45.673,174.452c0.21,0.028,0.462,0.028,0.827,0.028c0.966,0,1.821-0.364,1.821-1.359c0-0.952-0.854-1.33-1.919-1.33
			h-0.729V174.452z"/>
		<path fill="#414042" d="M52.014,166.648c0.687-0.11,1.709-0.194,2.844-0.194c1.401,0,2.381,0.21,3.054,0.741
			c0.56,0.449,0.868,1.106,0.868,1.976c0,1.205-0.854,2.031-1.667,2.325v0.042c0.658,0.267,1.022,0.896,1.26,1.767
			c0.294,1.063,0.588,2.297,0.771,2.66h-2.185c-0.154-0.267-0.378-1.035-0.658-2.199c-0.252-1.177-0.659-1.498-1.527-1.513h-0.645
			v3.712h-2.115V166.648z M54.129,170.712h0.84c1.065,0,1.695-0.532,1.695-1.358c0-0.869-0.588-1.303-1.569-1.316
			c-0.519,0-0.813,0.042-0.967,0.07L54.129,170.712L54.129,170.712z"/>
		<path fill="#414042" d="M68.903,171.146c0,3.096-1.877,4.973-4.637,4.973c-2.802,0-4.44-2.115-4.44-4.805
			c0-2.83,1.807-4.944,4.595-4.944C67.32,166.37,68.903,168.541,68.903,171.146z M62.081,171.271c0,1.85,0.868,3.151,2.297,3.151
			c1.442,0,2.269-1.373,2.269-3.208c0-1.693-0.813-3.15-2.283-3.15C62.921,168.064,62.081,169.438,62.081,171.271z"/>
		<path fill="#414042" d="M71.727,175.965l-2.241-9.441h2.283l0.714,3.896c0.21,1.12,0.406,2.339,0.561,3.292h0.028
			c0.154-1.021,0.378-2.156,0.617-3.32l0.798-3.865h2.269l0.756,3.979c0.21,1.105,0.364,2.115,0.504,3.166h0.028
			c0.14-1.051,0.351-2.156,0.546-3.277l0.771-3.867h2.171l-2.438,9.441h-2.312l-0.798-4.063c-0.182-0.952-0.336-1.836-0.448-2.913
			h-0.028c-0.168,1.063-0.322,1.961-0.546,2.913l-0.896,4.063h-2.339V175.965z"/>
		<path fill="#414042" d="M82.59,173.766c0.574,0.295,1.457,0.588,2.367,0.588c0.98,0,1.499-0.405,1.499-1.021
			c0-0.588-0.448-0.924-1.583-1.33c-1.569-0.547-2.591-1.415-2.591-2.788c0-1.61,1.345-2.843,3.572-2.843
			c1.064,0,1.849,0.225,2.409,0.477l-0.476,1.723c-0.378-0.182-1.051-0.447-1.975-0.447s-1.373,0.42-1.373,0.91
			c0,0.603,0.532,0.867,1.75,1.33c1.667,0.617,2.452,1.484,2.452,2.816c0,1.581-1.219,2.926-3.81,2.926
			c-1.079,0-2.143-0.278-2.676-0.573L82.59,173.766z"/>
		<path fill="#414042" d="M95.697,171.973h-3.474v2.241h3.88v1.751H90.08v-9.441h5.827v1.752h-3.684v1.961h3.474V171.973z"/>
		<path fill="#414042" d="M97.556,166.648c0.687-0.11,1.709-0.194,2.844-0.194c1.401,0,2.381,0.21,3.054,0.741
			c0.56,0.449,0.868,1.106,0.868,1.976c0,1.205-0.854,2.031-1.667,2.325v0.042c0.658,0.267,1.022,0.896,1.26,1.767
			c0.294,1.063,0.588,2.297,0.771,2.66h-2.185c-0.154-0.267-0.378-1.035-0.658-2.199c-0.252-1.177-0.659-1.498-1.527-1.513h-0.645
			v3.712h-2.115V166.648L97.556,166.648z M99.671,170.712h0.84c1.065,0,1.695-0.532,1.695-1.358c0-0.869-0.588-1.303-1.569-1.316
			c-0.519,0-0.813,0.042-0.967,0.07L99.671,170.712L99.671,170.712z"/>
		<path fill="#414042" d="M50.314,183.323v5.436c0,1.625,0.616,2.451,1.709,2.451c1.121,0,1.737-0.784,1.737-2.451v-5.436h2.129
			v5.295c0,2.914-1.471,4.301-3.936,4.301c-2.381,0-3.782-1.317-3.782-4.328v-5.268H50.314z"/>
		<path fill="#414042" d="M57.733,183.449c0.659-0.111,1.583-0.195,2.886-0.195c1.317,0,2.255,0.252,2.886,0.756
			c0.602,0.477,1.008,1.262,1.008,2.186c0,0.925-0.308,1.709-0.869,2.242c-0.728,0.687-1.807,0.994-3.067,0.994
			c-0.28,0-0.532-0.015-0.729-0.043v3.377h-2.115V183.449z M59.848,187.736c0.182,0.041,0.406,0.056,0.714,0.056
			c1.135,0,1.835-0.574,1.835-1.541c0-0.868-0.602-1.387-1.667-1.387c-0.435,0-0.729,0.042-0.883,0.084L59.848,187.736
			L59.848,187.736z"/>
		<path fill="#414042" d="M65.867,183.323h2.144v7.647h3.754v1.793h-5.897L65.867,183.323L65.867,183.323z"/>
		<path fill="#414042" d="M81.132,187.945c0,3.097-1.877,4.974-4.637,4.974c-2.801,0-4.44-2.114-4.44-4.805
			c0-2.83,1.807-4.944,4.595-4.944C79.549,183.17,81.132,185.341,81.132,187.945z M74.31,188.072c0,1.849,0.868,3.15,2.297,3.15
			c1.443,0,2.27-1.371,2.27-3.207c0-1.695-0.813-3.151-2.283-3.151C75.15,184.864,74.31,186.236,74.31,188.072z"/>
		<path fill="#414042" d="M84.502,190.342l-0.672,2.424h-2.213l2.885-9.441h2.802l2.927,9.441h-2.297l-0.729-2.424H84.502z
			 M86.897,188.744l-0.588-2.003c-0.168-0.562-0.336-1.261-0.476-1.821h-0.028c-0.14,0.561-0.28,1.275-0.434,1.821l-0.561,2.003
			H86.897z"/>
		<path fill="#414042" d="M91.487,183.449c0.785-0.126,1.807-0.195,2.886-0.195c1.793,0,2.956,0.322,3.866,1.008
			c0.98,0.729,1.597,1.893,1.597,3.559c0,1.808-0.658,3.055-1.569,3.824c-0.995,0.826-2.507,1.219-4.356,1.219
			c-1.106,0-1.891-0.069-2.423-0.141L91.487,183.449L91.487,183.449z M93.63,191.152c0.182,0.043,0.476,0.043,0.742,0.043
			c1.933,0.015,3.194-1.051,3.194-3.307c0.014-1.961-1.135-2.996-2.97-2.996c-0.476,0-0.785,0.041-0.966,0.084V191.152z"/>
	</g>
	<g>
		<path fill="#414042" d="M179.512,166.648c0.687-0.11,1.709-0.194,2.844-0.194c1.401,0,2.381,0.21,3.054,0.741
			c0.56,0.449,0.868,1.106,0.868,1.976c0,1.205-0.854,2.031-1.667,2.325v0.042c0.658,0.267,1.022,0.896,1.26,1.767
			c0.294,1.063,0.588,2.297,0.771,2.66h-2.185c-0.154-0.267-0.378-1.035-0.658-2.199c-0.252-1.177-0.659-1.498-1.527-1.513h-0.645
			v3.712h-2.115L179.512,166.648L179.512,166.648z M181.627,170.712h0.84c1.065,0,1.695-0.532,1.695-1.358
			c0-0.869-0.588-1.303-1.569-1.316c-0.519,0-0.813,0.042-0.967,0.07L181.627,170.712L181.627,170.712z"/>
		<path fill="#414042" d="M193.431,171.973h-3.474v2.241h3.88v1.751h-6.023v-9.441h5.827v1.752h-3.684v1.961h3.474V171.973z"/>
		<path fill="#414042" d="M197.615,175.965l-3.026-9.441h2.339l1.148,3.992c0.322,1.121,0.617,2.199,0.841,3.377h0.042
			c0.238-1.136,0.532-2.256,0.854-3.334l1.205-4.035h2.269l-3.18,9.441H197.615L197.615,175.965z"/>
		<path fill="#414042" d="M206.435,166.523v9.44h-2.144v-9.44H206.435z"/>
		<path fill="#414042" d="M213.898,171.973h-3.474v2.241h3.88v1.751h-6.023v-9.441h5.827v1.752h-3.684v1.961h3.474V171.973z"/>
		<path fill="#414042" d="M217.382,175.965l-2.241-9.441h2.283l0.714,3.896c0.21,1.12,0.406,2.339,0.561,3.292h0.028
			c0.154-1.021,0.378-2.156,0.617-3.32l0.798-3.865h2.269l0.756,3.979c0.21,1.105,0.364,2.115,0.504,3.166h0.028
			c0.14-1.051,0.351-2.156,0.546-3.277l0.771-3.867h2.171l-2.438,9.441h-2.312l-0.798-4.063c-0.182-0.952-0.336-1.836-0.448-2.913
			h-0.028c-0.168,1.063-0.322,1.961-0.546,2.913l-0.896,4.063h-2.339V175.965z"/>
		<path fill="#414042" d="M187.204,183.449c0.785-0.126,1.807-0.195,2.886-0.195c1.793,0,2.956,0.322,3.866,1.008
			c0.98,0.729,1.597,1.893,1.597,3.559c0,1.808-0.658,3.055-1.569,3.824c-0.995,0.826-2.507,1.219-4.356,1.219
			c-1.106,0-1.891-0.069-2.423-0.141L187.204,183.449L187.204,183.449z M189.348,191.152c0.182,0.043,0.476,0.043,0.742,0.043
			c1.933,0.015,3.194-1.051,3.194-3.307c0.014-1.961-1.135-2.996-2.97-2.996c-0.476,0-0.785,0.041-0.966,0.084V191.152z"/>
		<path fill="#414042" d="M198.923,190.342l-0.672,2.424h-2.213l2.885-9.441h2.802l2.927,9.441h-2.297l-0.729-2.424H198.923z
			 M201.319,188.744l-0.588-2.003c-0.168-0.562-0.336-1.261-0.476-1.821h-0.028c-0.14,0.561-0.28,1.275-0.434,1.821l-0.561,2.003
			H201.319z"/>
		<path fill="#414042" d="M206.568,185.116h-2.536v-1.793h7.256v1.793h-2.577v7.647h-2.143V185.116z"/>
		<path fill="#414042" d="M213.61,190.342l-0.672,2.424h-2.213l2.885-9.441h2.802l2.927,9.441h-2.297l-0.729-2.424H213.61z
			 M216.005,188.744l-0.588-2.003c-0.168-0.562-0.336-1.261-0.476-1.821h-0.028c-0.14,0.561-0.28,1.275-0.434,1.821l-0.561,2.003
			H216.005z"/>
	</g>
	<g>
		<path fill="#414042" d="M296.616,173.766c0.574,0.295,1.457,0.588,2.367,0.588c0.98,0,1.499-0.405,1.499-1.021
			c0-0.588-0.448-0.924-1.583-1.33c-1.569-0.547-2.591-1.415-2.591-2.788c0-1.61,1.345-2.843,3.572-2.843
			c1.064,0,1.849,0.225,2.409,0.477l-0.476,1.723c-0.378-0.182-1.051-0.447-1.975-0.447s-1.373,0.42-1.373,0.91
			c0,0.603,0.532,0.867,1.751,1.33c1.667,0.617,2.451,1.484,2.451,2.816c0,1.581-1.219,2.926-3.81,2.926
			c-1.079,0-2.143-0.278-2.675-0.573L296.616,173.766z"/>
		<path fill="#414042" d="M309.723,171.973h-3.474v2.241h3.88v1.751h-6.023v-9.441h5.827v1.752h-3.684v1.961h3.474V171.973z"/>
		<path fill="#414042" d="M318.516,175.698c-0.393,0.196-1.275,0.405-2.423,0.405c-3.264,0-4.945-2.029-4.945-4.72
			c0-3.222,2.297-5.015,5.155-5.015c1.106,0,1.947,0.224,2.325,0.42l-0.434,1.693c-0.434-0.182-1.037-0.35-1.793-0.35
			c-1.695,0-3.012,1.021-3.012,3.123c0,1.893,1.121,3.082,3.026,3.082c0.644,0,1.358-0.14,1.779-0.309L318.516,175.698z"/>
		<path fill="#414042" d="M322.041,166.523v5.436c0,1.625,0.616,2.451,1.709,2.451c1.121,0,1.737-0.784,1.737-2.451v-5.436h2.129
			v5.295c0,2.914-1.471,4.301-3.936,4.301c-2.381,0-3.782-1.317-3.782-4.328v-5.268H322.041L322.041,166.523z"/>
		<path fill="#414042" d="M329.459,166.648c0.687-0.11,1.709-0.194,2.844-0.194c1.401,0,2.381,0.21,3.054,0.741
			c0.56,0.449,0.868,1.106,0.868,1.976c0,1.205-0.854,2.031-1.667,2.325v0.042c0.658,0.267,1.022,0.896,1.26,1.767
			c0.294,1.063,0.588,2.297,0.771,2.66h-2.185c-0.154-0.267-0.378-1.035-0.658-2.199c-0.252-1.177-0.659-1.498-1.527-1.513h-0.645
			v3.712h-2.115V166.648L329.459,166.648z M331.574,170.712h0.84c1.065,0,1.695-0.532,1.695-1.358c0-0.869-0.588-1.303-1.569-1.316
			c-0.519,0-0.813,0.042-0.967,0.07L331.574,170.712L331.574,170.712z"/>
		<path fill="#414042" d="M343.378,171.973h-3.474v2.241h3.88v1.751h-6.023v-9.441h5.827v1.752h-3.684v1.961h3.474V171.973z"/>
		<path fill="#414042" d="M289.883,185.116h-2.536v-1.793h7.256v1.793h-2.577v7.647h-2.143V185.116z"/>
		<path fill="#414042" d="M295.733,183.449c0.687-0.111,1.709-0.195,2.844-0.195c1.401,0,2.381,0.21,3.054,0.742
			c0.56,0.447,0.868,1.105,0.868,1.975c0,1.205-0.854,2.031-1.667,2.325v0.042c0.658,0.268,1.022,0.896,1.26,1.766
			c0.294,1.064,0.588,2.297,0.771,2.662h-2.185c-0.154-0.268-0.378-1.037-0.658-2.199c-0.252-1.178-0.659-1.5-1.527-1.514h-0.645
			v3.713h-2.115V183.449L295.733,183.449z M297.849,187.512h0.84c1.065,0,1.695-0.531,1.695-1.357c0-0.869-0.588-1.303-1.569-1.317
			c-0.519,0-0.813,0.042-0.967,0.07L297.849,187.512L297.849,187.512z"/>
		<path fill="#414042" d="M306.36,190.342l-0.672,2.424h-2.213l2.885-9.441h2.802l2.928,9.441h-2.297l-0.729-2.424H306.36z
			 M308.756,188.744l-0.588-2.003c-0.168-0.562-0.336-1.261-0.476-1.821h-0.028c-0.14,0.561-0.28,1.275-0.434,1.821l-0.561,2.003
			H308.756z"/>
		<path fill="#414042" d="M313.345,192.766v-9.441h2.494l1.961,3.46c0.561,0.995,1.121,2.172,1.541,3.235h0.042
			c-0.14-1.246-0.182-2.521-0.182-3.937v-2.76h1.961v9.44h-2.241l-2.017-3.642c-0.561-1.009-1.177-2.228-1.639-3.334l-0.042,0.015
			c0.056,1.246,0.084,2.576,0.084,4.117v2.844h-1.962V192.766z"/>
		<path fill="#414042" d="M323.075,190.564c0.574,0.295,1.457,0.588,2.367,0.588c0.98,0,1.499-0.404,1.499-1.021
			c0-0.588-0.448-0.924-1.583-1.33c-1.569-0.547-2.591-1.415-2.591-2.787c0-1.611,1.345-2.844,3.572-2.844
			c1.064,0,1.849,0.225,2.409,0.477l-0.476,1.724c-0.378-0.183-1.051-0.449-1.975-0.449c-0.924,0-1.373,0.421-1.373,0.911
			c0,0.604,0.532,0.868,1.75,1.331c1.667,0.616,2.452,1.483,2.452,2.815c0,1.582-1.219,2.926-3.81,2.926
			c-1.079,0-2.143-0.278-2.676-0.573L323.075,190.564z"/>
		<path fill="#414042" d="M330.565,183.323h5.771v1.751h-3.628v2.156h3.39v1.737h-3.39v3.796h-2.144L330.565,183.323
			L330.565,183.323z"/>
		<path fill="#414042" d="M343.56,188.771h-3.474v2.242h3.88v1.75h-6.023v-9.44h5.827v1.751h-3.684v1.961h3.474V188.771z"/>
		<path fill="#414042" d="M345.419,183.449c0.687-0.111,1.709-0.195,2.844-0.195c1.401,0,2.381,0.21,3.054,0.742
			c0.56,0.447,0.868,1.105,0.868,1.975c0,1.205-0.854,2.031-1.667,2.325v0.042c0.658,0.268,1.022,0.896,1.26,1.766
			c0.294,1.064,0.588,2.297,0.771,2.662h-2.185c-0.154-0.268-0.378-1.037-0.658-2.199c-0.252-1.178-0.659-1.5-1.527-1.514h-0.645
			v3.713h-2.115V183.449L345.419,183.449z M347.534,187.512h0.84c1.065,0,1.695-0.531,1.695-1.357c0-0.869-0.588-1.303-1.569-1.317
			c-0.519,0-0.813,0.042-0.967,0.07L347.534,187.512L347.534,187.512z"/>
	</g>
	<g>
		<path fill="#414042" d="M96.87,22.965v-3.866l-2.984-5.575h2.438l0.966,2.27c0.294,0.687,0.49,1.19,0.729,1.807h0.028
			c0.21-0.588,0.435-1.135,0.714-1.807l0.953-2.27h2.396L99,19.029v3.937L96.87,22.965L96.87,22.965z"/>
		<path fill="#414042" d="M111.111,18.146c0,3.096-1.877,4.973-4.637,4.973c-2.802,0-4.44-2.115-4.44-4.805
			c0-2.83,1.807-4.944,4.595-4.944C109.528,13.37,111.111,15.541,111.111,18.146z M104.29,18.272c0,1.849,0.868,3.151,2.297,3.151
			c1.442,0,2.269-1.373,2.269-3.208c0-1.694-0.813-3.151-2.283-3.151C105.13,15.064,104.29,16.438,104.29,18.272z"/>
		<path fill="#414042" d="M114.636,13.523v5.436c0,1.625,0.616,2.451,1.709,2.451c1.121,0,1.737-0.784,1.737-2.451v-5.436h2.129
			v5.295c0,2.914-1.471,4.301-3.937,4.301c-2.381,0-3.782-1.317-3.782-4.328v-5.268H114.636z"/>
		<path fill="#414042" d="M122.054,13.649c0.687-0.111,1.709-0.195,2.844-0.195c1.401,0,2.381,0.21,3.054,0.742
			c0.56,0.448,0.868,1.106,0.868,1.975c0,1.205-0.854,2.031-1.667,2.325v0.042c0.658,0.267,1.022,0.896,1.261,1.766
			c0.294,1.064,0.588,2.297,0.77,2.661h-2.185c-0.154-0.267-0.378-1.036-0.658-2.199c-0.252-1.177-0.659-1.499-1.527-1.513h-0.645
			v3.712h-2.115V13.649L122.054,13.649z M124.169,17.712h0.84c1.065,0,1.695-0.532,1.695-1.358c0-0.869-0.588-1.303-1.569-1.317
			c-0.519,0-0.813,0.042-0.967,0.07L124.169,17.712L124.169,17.712z"/>
		<path fill="#414042" d="M141.168,19.351c-0.042-1.135-0.084-2.507-0.084-3.88h-0.042c-0.294,1.205-0.687,2.55-1.05,3.656
			l-1.149,3.684h-1.667l-1.008-3.656c-0.308-1.106-0.63-2.451-0.854-3.684h-0.028c-0.056,1.274-0.098,2.731-0.168,3.908
			l-0.168,3.586h-1.975l0.603-9.441h2.843l0.925,3.152c0.294,1.092,0.588,2.269,0.798,3.375h0.042
			c0.266-1.092,0.588-2.339,0.896-3.39l1.008-3.138h2.788l0.519,9.441h-2.087L141.168,19.351z"/>
		<path fill="#414042" d="M147.186,20.542l-0.672,2.423H144.3l2.885-9.441h2.802l2.928,9.441h-2.297l-0.729-2.423H147.186z
			 M149.581,18.944l-0.588-2.003c-0.168-0.561-0.336-1.261-0.476-1.82h-0.028c-0.14,0.56-0.28,1.274-0.434,1.82l-0.561,2.003
			H149.581z"/>
		<path fill="#414042" d="M160.754,22.698c-0.393,0.196-1.275,0.406-2.423,0.406c-3.264,0-4.945-2.03-4.945-4.72
			c0-3.222,2.297-5.015,5.155-5.015c1.106,0,1.947,0.224,2.325,0.42l-0.434,1.694c-0.434-0.182-1.037-0.35-1.793-0.35
			c-1.695,0-3.012,1.022-3.012,3.123c0,1.892,1.121,3.082,3.026,3.082c0.644,0,1.358-0.14,1.779-0.308L160.754,22.698z"/>
		<path fill="#414042" d="M164.293,13.523v3.628h3.516v-3.628h2.129v9.441h-2.129v-3.95h-3.516v3.95h-2.144v-9.441H164.293z"/>
		<path fill="#414042" d="M173.939,13.523v9.441h-2.144v-9.441H173.939z"/>
		<path fill="#414042" d="M175.786,22.965v-9.441h2.494l1.961,3.46c0.561,0.995,1.121,2.171,1.541,3.236h0.042
			c-0.14-1.247-0.182-2.521-0.182-3.937v-2.76h1.961v9.441h-2.241l-2.017-3.642c-0.561-1.009-1.177-2.229-1.639-3.334l-0.042,0.014
			c0.056,1.247,0.084,2.577,0.084,4.118v2.844L175.786,22.965L175.786,22.965z"/>
		<path fill="#414042" d="M191.063,18.973h-3.474v2.241h3.88v1.751h-6.023v-9.441h5.827v1.751h-3.684v1.961h3.474V18.973z"/>
	</g>
</g>
<g id="Layer_3">
</g>
<g>
	<path d="M413.13,81.871h-5.43v-3.84h15.539v3.84h-5.52V98.25h-4.59V81.871z"/>
	<path d="M430.229,81.871h-5.43v-3.84h15.539v3.84h-5.52V98.25h-4.59V81.871z"/>
	<path d="M442.769,78.301c1.41-0.24,3.391-0.42,6.181-0.42c2.819,0,4.829,0.54,6.18,1.62c1.289,1.02,2.159,2.7,2.159,4.68
		s-0.659,3.66-1.859,4.8c-1.561,1.47-3.87,2.13-6.57,2.13c-0.6,0-1.14-0.03-1.56-0.09v7.229h-4.53V78.301z M447.299,87.48
		c0.39,0.09,0.87,0.12,1.53,0.12c2.43,0,3.93-1.23,3.93-3.3c0-1.86-1.29-2.97-3.57-2.97c-0.93,0-1.56,0.09-1.89,0.18V87.48z"/>
</g>
<g>
	<path fill="#414042" d="M525.958,173.766c0.573,0.295,1.457,0.588,2.366,0.588c0.98,0,1.5-0.405,1.5-1.021
		c0-0.588-0.448-0.924-1.584-1.33c-1.568-0.547-2.59-1.415-2.59-2.788c0-1.61,1.344-2.843,3.571-2.843
		c1.063,0,1.849,0.225,2.409,0.477l-0.477,1.723c-0.377-0.182-1.051-0.447-1.975-0.447s-1.373,0.42-1.373,0.91
		c0,0.603,0.532,0.867,1.751,1.33c1.667,0.617,2.451,1.484,2.451,2.816c0,1.581-1.22,2.926-3.81,2.926
		c-1.08,0-2.144-0.278-2.676-0.573L525.958,173.766z"/>
	<path fill="#414042" d="M539.064,171.973h-3.474v2.241h3.88v1.751h-6.023v-9.441h5.828v1.752h-3.685v1.961h3.474V171.973z"/>
	<path fill="#414042" d="M547.857,175.698c-0.393,0.196-1.274,0.405-2.423,0.405c-3.264,0-4.944-2.029-4.944-4.72
		c0-3.222,2.297-5.015,5.154-5.015c1.106,0,1.947,0.224,2.325,0.42l-0.435,1.693c-0.434-0.182-1.036-0.35-1.793-0.35
		c-1.694,0-3.012,1.021-3.012,3.123c0,1.893,1.121,3.082,3.026,3.082c0.644,0,1.358-0.14,1.778-0.309L547.857,175.698z"/>
	<path fill="#414042" d="M551.383,166.523v5.436c0,1.625,0.616,2.451,1.709,2.451c1.121,0,1.736-0.784,1.736-2.451v-5.436h2.13
		v5.295c0,2.914-1.472,4.301-3.937,4.301c-2.381,0-3.781-1.317-3.781-4.328v-5.268H551.383L551.383,166.523z"/>
	<path fill="#414042" d="M558.801,166.648c0.688-0.11,1.709-0.194,2.844-0.194c1.401,0,2.381,0.21,3.055,0.741
		c0.56,0.449,0.867,1.106,0.867,1.976c0,1.205-0.854,2.031-1.666,2.325v0.042c0.657,0.267,1.021,0.896,1.26,1.767
		c0.293,1.063,0.588,2.297,0.771,2.66h-2.185c-0.154-0.267-0.379-1.035-0.658-2.199c-0.252-1.177-0.659-1.498-1.527-1.513h-0.645
		v3.712h-2.115V166.648L558.801,166.648z M560.916,170.712h0.84c1.064,0,1.695-0.532,1.695-1.358c0-0.869-0.588-1.303-1.569-1.316
		c-0.519,0-0.813,0.042-0.967,0.07L560.916,170.712L560.916,170.712z"/>
	<path fill="#414042" d="M572.72,171.973h-3.474v2.241h3.88v1.751h-6.023v-9.441h5.827v1.752h-3.684v1.961h3.474V171.973z"/>
	<path fill="#414042" d="M519.225,185.116h-2.535v-1.793h7.256v1.793h-2.578v7.647h-2.143V185.116z"/>
	<path fill="#414042" d="M525.074,183.449c0.688-0.111,1.709-0.195,2.845-0.195c1.401,0,2.381,0.21,3.054,0.742
		c0.561,0.447,0.868,1.105,0.868,1.975c0,1.205-0.854,2.031-1.667,2.325v0.042c0.658,0.268,1.021,0.896,1.26,1.766
		c0.295,1.064,0.588,2.297,0.771,2.662h-2.186c-0.154-0.268-0.378-1.037-0.658-2.199c-0.252-1.178-0.658-1.5-1.526-1.514h-0.646
		v3.713h-2.115V183.449L525.074,183.449z M527.191,187.512h0.84c1.064,0,1.694-0.531,1.694-1.357c0-0.869-0.588-1.303-1.569-1.317
		c-0.519,0-0.813,0.042-0.967,0.07v2.604H527.191z"/>
	<path fill="#414042" d="M535.701,190.342l-0.672,2.424h-2.213l2.885-9.441h2.803l2.928,9.441h-2.297l-0.729-2.424H535.701z
		 M538.098,188.744l-0.588-2.003c-0.168-0.562-0.336-1.261-0.477-1.821h-0.027c-0.141,0.561-0.28,1.275-0.434,1.821l-0.562,2.003
		H538.098z"/>
	<path fill="#414042" d="M542.688,192.766v-9.441h2.493l1.961,3.46c0.562,0.995,1.121,2.172,1.541,3.235h0.042
		c-0.14-1.246-0.182-2.521-0.182-3.937v-2.76h1.961v9.44h-2.241l-2.017-3.642c-0.562-1.009-1.178-2.228-1.639-3.334l-0.043,0.015
		c0.057,1.246,0.084,2.576,0.084,4.117v2.844h-1.961V192.766z"/>
	<path fill="#414042" d="M552.417,190.564c0.573,0.295,1.457,0.588,2.366,0.588c0.98,0,1.5-0.404,1.5-1.021
		c0-0.588-0.448-0.924-1.584-1.33c-1.568-0.547-2.59-1.415-2.59-2.787c0-1.611,1.344-2.844,3.571-2.844
		c1.063,0,1.849,0.225,2.409,0.477l-0.477,1.724c-0.377-0.183-1.051-0.449-1.975-0.449s-1.373,0.421-1.373,0.911
		c0,0.604,0.532,0.868,1.75,1.331c1.667,0.616,2.452,1.483,2.452,2.815c0,1.582-1.219,2.926-3.81,2.926
		c-1.08,0-2.144-0.278-2.676-0.573L552.417,190.564z"/>
	<path fill="#414042" d="M559.906,183.323h5.771v1.751h-3.628v2.156h3.39v1.737h-3.39v3.796h-2.144V183.323L559.906,183.323z"/>
	<path fill="#414042" d="M572.902,188.771h-3.475v2.242h3.88v1.75h-6.022v-9.44h5.826v1.751h-3.684v1.961h3.475V188.771z"/>
	<path fill="#414042" d="M574.761,183.449c0.687-0.111,1.709-0.195,2.845-0.195c1.4,0,2.381,0.21,3.053,0.742
		c0.561,0.447,0.869,1.105,0.869,1.975c0,1.205-0.854,2.031-1.668,2.325v0.042c0.658,0.268,1.022,0.896,1.26,1.766
		c0.295,1.064,0.589,2.297,0.771,2.662h-2.185c-0.154-0.268-0.378-1.037-0.658-2.199c-0.252-1.178-0.659-1.5-1.526-1.514h-0.646
		v3.713h-2.115V183.449L574.761,183.449z M576.876,187.512h0.84c1.065,0,1.694-0.531,1.694-1.357c0-0.869-0.588-1.303-1.568-1.317
		c-0.52,0-0.813,0.042-0.967,0.07L576.876,187.512L576.876,187.512z"/>
</g>
</svg>
